<?xml version="1.0" standalone="no"?>
<!DOCTYPE svg PUBLIC "-//W3C//DTD SVG 20010904//EN"
 "http://www.w3.org/TR/2001/REC-SVG-20010904/DTD/svg10.dtd">
<svg version="1.0" xmlns="http://www.w3.org/2000/svg"
 width="1024.000000pt" height="1024.000000pt" viewBox="0 0 1024.000000 1024.000000"
 preserveAspectRatio="xMidYMid meet">
<metadata>
Created by potrace 1.11, written by Peter Selinger 2001-2013
</metadata>
<g transform="translate(0.000000,1024.000000) scale(0.100000,-0.100000)"
fill="#000000" stroke="none">
<path d="M300 10224 c-143 -38 -247 -144 -285 -290 -13 -54 -15 -560 -13
-4839 l3 -4780 23 -55 c48 -117 146 -208 259 -241 41 -12 758 -14 4843 -14
l4795 0 55 23 c117 48 208 146 241 259 21 72 21 9594 0 9666 -33 113 -124 211
-241 259 l-55 23 -4785 2 c-4189 2 -4792 0 -4840 -13z m6000 -1739 c0 -729 1
-1325 3 -1325 2 0 48 30 103 66 242 161 528 270 839 320 152 25 494 25 655 1
222 -34 411 -92 585 -179 624 -313 1024 -935 1140 -1769 23 -161 31 -524 16
-700 -55 -647 -285 -1194 -661 -1569 -377 -378 -838 -560 -1415 -560 -435 0
-852 112 -1205 324 -62 37 -114 66 -115 64 -2 -2 -6 -51 -10 -108 -3 -58 -8
-124 -11 -147 l-5 -43 -535 0 -534 0 0 3475 0 3475 575 0 575 0 0 -1325z
m-3311 -981 c251 -37 497 -124 695 -247 l39 -24 61 27 c85 39 266 95 383 119
192 40 323 51 589 51 l256 0 -6 -47 c-3 -27 -20 -183 -36 -348 -17 -165 -33
-306 -35 -312 -3 -10 -79 -13 -335 -13 -229 0 -330 -3 -330 -11 0 -6 18 -41
40 -79 205 -350 279 -879 190 -1341 -95 -496 -350 -888 -740 -1141 -405 -264
-963 -361 -1469 -257 -51 10 -102 19 -113 19 -11 0 -37 -17 -58 -38 -90 -90
-50 -221 90 -292 134 -68 250 -90 905 -175 281 -36 577 -79 659 -96 428 -87
748 -233 970 -440 177 -166 287 -373 331 -626 20 -112 19 -351 0 -473 -65
-396 -304 -722 -702 -956 -386 -228 -878 -335 -1533 -335 -600 0 -1032 83
-1414 272 -267 132 -451 288 -581 493 -114 180 -169 425 -145 658 37 371 237
664 625 916 55 36 104 68 108 72 4 4 -17 23 -47 43 -143 95 -256 236 -310 386
-29 81 -31 94 -31 231 1 132 3 151 27 212 14 37 41 93 59 124 52 87 172 201
272 259 47 28 86 52 87 55 0 3 -45 43 -101 89 -324 269 -529 670 -589 1151
-15 123 -12 401 5 533 80 611 409 1094 925 1356 229 117 458 177 780 205 87 8
373 -4 479 -20z"/>
<path d="M7274 6619 c-172 -13 -349 -64 -469 -135 -291 -174 -473 -496 -541
-961 -22 -146 -25 -531 -6 -673 47 -345 153 -613 320 -809 191 -224 536 -350
891 -326 322 21 568 163 744 426 180 271 261 593 260 1034 0 283 -26 463 -95
675 -128 391 -361 641 -683 735 -69 20 -290 50 -315 43 -3 0 -50 -4 -106 -9z"/>
<path d="M2540 6670 c-375 -48 -603 -277 -691 -692 -29 -136 -32 -425 -6 -565
70 -376 266 -609 582 -695 116 -31 365 -31 480 1 164 45 287 124 386 249 151
190 218 443 206 782 -11 324 -90 535 -266 711 -98 98 -198 154 -333 188 -89
23 -265 33 -358 21z"/>
<path d="M2090 2614 c-228 -109 -377 -270 -425 -459 -19 -76 -19 -224 0 -298
55 -210 242 -363 545 -446 377 -103 1030 -101 1395 4 273 79 434 227 465 429
26 170 -31 331 -152 426 -102 82 -300 154 -558 204 -124 24 -1141 176 -1179
176 -9 0 -50 -16 -91 -36z"/>
</g>
</svg>
