<?xml version="1.0"?>
 <!-- Created with matplotlib (http://matplotlib.org/) --> <svg height="442" version="1.1" viewBox="0 0 699 442" width="699" xmlns="http://www.w3.org/2000/svg" xmlns:xlink="http://www.w3.org/1999/xlink"> <defs> <style type="text/css"> *{stroke-linecap:butt;stroke-linejoin:round;} </style> </defs> <g id="figure_1"> <g id="patch_1"> <path d=" M0 442.8 L699.3 442.8 L699.3 0 L0 0 z " style="fill:#ffffff;"></path> </g> <g id="axes_1"> <g id="patch_2"> <path d=" M87.4125 398.52 L629.37 398.52 L629.37 44.28 L87.4125 44.28 z " style="fill:#ffffff;"></path> </g> <g id="line2d_1"> <path clip-path="url(#pe6612f21aa)" d=" M128.059 341.19 L161.932 341.276 L179.545 341.45 L190.384 341.772 L201.224 342.33 L212.063 342.888 L217.482 342.966 L221.547 342.832 L225.612 342.451 L228.321 342.019 L231.031 341.416 L232.386 341.063 L233.741 340.839 L235.096 340.736 L237.806 340.862 L240.515 341.367 L243.225 342.17 L247.29 343.739 L254.064 346.474 L256.774 347.3 L259.484 347.812 L262.194 347.914 L377.36 347.914 L378.715 347.74 L380.07 347.026 L381.424 345.797 L382.779 344.075 L384.134 341.884 L385.489 339.246 L386.844 336.183 L388.199 332.718 L389.554 328.872 L392.264 320.129 L394.973 310.134 L397.683 299.071 L400.393 287.123 L404.458 267.956 L409.877 241.043 L418.007 200.495 L422.071 181.236 L426.136 163.246 L428.846 152.144 L431.556 141.869 L434.265 132.505 L436.975 124.12 L439.685 116.77 L442.395 110.497 L443.75 107.772 L445.104 105.327 L446.459 103.141 L447.814 101.213 L449.169 99.5449 L450.524 98.1345 L451.879 96.9808 L453.234 96.0821 L454.589 95.4359 L455.944 95.0382 L457.298 94.8857 L587.368 94.8862 L587.368 94.8862" style="fill:none;stroke:#ff0000;stroke-linecap:square;"></path> </g> <g id="line2d_2"> <path clip-path="url(#pe6612f21aa)" d=" M128.059 347.892 L148.383 347.914 L232.386 347.872 L233.741 347.463 L235.096 346.695 L236.451 345.579 L237.806 344.124 L239.161 342.342 L240.515 340.245 L241.87 337.846 L243.225 335.159 L245.935 328.982 L248.645 321.851 L251.355 313.914 L254.064 305.317 L258.129 291.498 L263.549 272.017 L268.968 251.435 L287.937 178.129 L292.001 163.574 L296.066 149.877 L298.776 141.326 L301.486 133.312 L304.196 125.897 L306.905 119.144 L309.615 113.111 L312.325 107.857 L315.035 103.431 L316.39 101.545 L317.744 99.8821 L319.099 98.4486 L320.454 97.2494 L321.809 96.2892 L323.164 95.5725 L324.519 95.1033 L325.874 94.8858 L367.876 94.8857 L369.23 95.0302 L370.585 95.3635 L371.94 95.8793 L373.295 96.5716 L374.65 97.4344 L376.005 98.4615 L377.36 99.6465 L378.715 101.072 L380.07 102.91 L381.424 105.144 L382.779 107.756 L384.134 110.727 L385.489 114.04 L388.199 121.617 L390.909 130.344 L393.618 140.077 L396.328 150.669 L400.393 167.847 L404.458 186.121 L420.716 260.699 L424.781 277.652 L427.491 288.213 L430.201 298.085 L432.91 307.198 L435.62 315.491 L438.33 322.917 L441.04 329.439 L443.75 335.03 L445.104 337.473 L446.459 339.659 L447.814 341.587 L449.169 343.255 L450.524 344.666 L451.879 345.819 L453.234 346.718 L454.589 347.364 L455.944 347.762 L457.298 347.914 L587.368 347.914 L587.368 347.914" style="fill:none;stroke:#008000;stroke-linecap:square;"></path> </g> <g id="line2d_3"> <path clip-path="url(#pe6612f21aa)" d=" M128.059 101.632 L138.898 101.583 L179.545 101.35 L190.384 101.028 L201.224 100.47 L212.063 99.912 L217.482 99.8335 L221.547 99.968 L225.612 100.349 L228.321 100.781 L231.031 101.384 L232.386 101.78 L233.741 102.413 L235.096 103.283 L236.451 104.388 L237.806 105.728 L239.161 107.3 L240.515 109.102 L241.87 111.131 L243.225 113.385 L245.935 118.549 L248.645 124.555 L251.355 131.36 L254.064 138.924 L256.774 147.211 L259.484 156.186 L263.549 170.783 L268.968 191.365 L287.937 264.671 L292.001 279.226 L296.066 292.923 L298.776 301.474 L301.486 309.488 L304.196 316.903 L306.905 323.656 L309.615 329.688 L312.325 334.943 L315.035 339.369 L316.39 341.255 L317.744 342.918 L319.099 344.351 L320.454 345.551 L321.809 346.511 L323.164 347.227 L324.519 347.697 L325.874 347.914 L367.876 347.914 L369.23 347.77 L370.585 347.437 L371.94 346.921 L373.295 346.228 L374.65 345.366 L376.005 344.338 L380.07 340.778 L382.779 338.883 L385.489 337.429 L388.199 336.38 L390.909 335.702 L393.618 335.361 L396.328 335.32 L399.038 335.544 L401.748 335.996 L404.458 336.637 L408.522 337.872 L413.942 339.845 L426.136 344.454 L430.201 345.731 L434.265 346.759 L438.33 347.484 L441.04 347.779 L443.75 347.912 L510.139 347.914 L587.368 347.914 L587.368 347.914" style="fill:none;stroke:#0000ff;stroke-linecap:square;"></path> </g> <g id="line2d_4"> <path clip-path="url(#pe6612f21aa)" d=" M128.059 94.8857 L587.368 94.8857 L587.368 94.8857" style="fill:none;stroke:#0000ff;stroke-dasharray:6.000000,6.000000;stroke-dashoffset:0.0;"></path> </g> <g id="patch_3"> <path d=" M87.4125 44.28 L629.37 44.28" style="fill:none;stroke:#000000;stroke-linecap:square;stroke-linejoin:miter;"></path> </g> <g id="patch_4"> <path d=" M629.37 398.52 L629.37 44.28" style="fill:none;stroke:#000000;stroke-linecap:square;stroke-linejoin:miter;"></path> </g> <g id="patch_5"> <path d=" M87.4125 398.52 L629.37 398.52" style="fill:none;stroke:#000000;stroke-linecap:square;stroke-linejoin:miter;"></path> </g> <g id="patch_6"> <path d=" M87.4125 398.52 L87.4125 44.28" style="fill:none;stroke:#000000;stroke-linecap:square;stroke-linejoin:miter;"></path> </g> <g id="matplotlib.axis_1"> <g id="xtick_1"> <g id="line2d_5"> <defs> <path d=" M0 0 L0 -4" id="m93b0483c22" style="stroke:#000000;stroke-width:0.5;"></path> </defs> <g> <use style="stroke:#000000;stroke-width:0.5;" x="87.4125" xlink:href="#m93b0483c22" y="398.52"></use> </g> </g> <g id="line2d_6"> <defs> <path d=" M0 0 L0 4" id="m741efc42ff" style="stroke:#000000;stroke-width:0.5;"></path> </defs> <g> <use style="stroke:#000000;stroke-width:0.5;" x="87.4125" xlink:href="#m741efc42ff" y="44.28"></use> </g> </g> <g id="text_1">  <defs> <path d=" M40.5781 39.3125 Q47.6562 37.7969 51.625 33 Q55.6094 28.2188 55.6094 21.1875 Q55.6094 10.4062 48.1875 4.48438 Q40.7656 -1.42188 27.0938 -1.42188 Q22.5156 -1.42188 17.6562 -0.515625 Q12.7969 0.390625 7.625 2.20312 L7.625 11.7188 Q11.7188 9.32812 16.5938 8.10938 Q21.4844 6.89062 26.8125 6.89062 Q36.0781 6.89062 40.9375 10.5469 Q45.7969 14.2031 45.7969 21.1875 Q45.7969 27.6406 41.2812 31.2656 Q36.7656 34.9062 28.7188 34.9062 L20.2188 34.9062 L20.2188 43.0156 L29.1094 43.0156 Q36.375 43.0156 40.2344 45.9219 Q44.0938 48.8281 44.0938 54.2969 Q44.0938 59.9062 40.1094 62.9062 Q36.1406 65.9219 28.7188 65.9219 Q24.6562 65.9219 20.0156 65.0312 Q15.375 64.1562 9.8125 62.3125 L9.8125 71.0938 Q15.4375 72.6562 20.3438 73.4375 Q25.25 74.2188 29.5938 74.2188 Q40.8281 74.2188 47.3594 69.1094 Q53.9062 64.0156 53.9062 55.3281 Q53.9062 49.2656 50.4375 45.0938 Q46.9688 40.9219 40.5781 39.3125" id="BitstreamVeraSans-Roman-33"></path> <path d=" M31.7812 66.4062 Q24.1719 66.4062 20.3281 58.9062 Q16.5 51.4219 16.5 36.375 Q16.5 21.3906 20.3281 13.8906 Q24.1719 6.39062 31.7812 6.39062 Q39.4531 6.39062 43.2812 13.8906 Q47.125 21.3906 47.125 36.375 Q47.125 51.4219 43.2812 58.9062 Q39.4531 66.4062 31.7812 66.4062 M31.7812 74.2188 Q44.0469 74.2188 50.5156 64.5156 Q56.9844 54.8281 56.9844 36.375 Q56.9844 17.9688 50.5156 8.26562 Q44.0469 -1.42188 31.7812 -1.42188 Q19.5312 -1.42188 13.0625 8.26562 Q6.59375 17.9688 6.59375 36.375 Q6.59375 54.8281 13.0625 64.5156 Q19.5312 74.2188 31.7812 74.2188" id="BitstreamVeraSans-Roman-30"></path> <path d=" M10.7969 72.9062 L49.5156 72.9062 L49.5156 64.5938 L19.8281 64.5938 L19.8281 46.7344 Q21.9688 47.4688 24.1094 47.8281 Q26.2656 48.1875 28.4219 48.1875 Q40.625 48.1875 47.75 41.5 Q54.8906 34.8125 54.8906 23.3906 Q54.8906 11.625 47.5625 5.09375 Q40.2344 -1.42188 26.9062 -1.42188 Q22.3125 -1.42188 17.5469 -0.640625 Q12.7969 0.140625 7.71875 1.70312 L7.71875 11.625 Q12.1094 9.23438 16.7969 8.0625 Q21.4844 6.89062 26.7031 6.89062 Q35.1562 6.89062 40.0781 11.3281 Q45.0156 15.7656 45.0156 23.3906 Q45.0156 31 40.0781 35.4375 Q35.1562 39.8906 26.7031 39.8906 Q22.75 39.8906 18.8125 39.0156 Q14.8906 38.1406 10.7969 36.2812 z " id="BitstreamVeraSans-Roman-35"></path> </defs> <g transform="translate(76.8159375 411.638125)scale(0.12 -0.12)"> <use xlink:href="#BitstreamVeraSans-Roman-33"></use> <use x="63.623046875" xlink:href="#BitstreamVeraSans-Roman-35"></use> <use x="127.24609375" xlink:href="#BitstreamVeraSans-Roman-30"></use> </g> </g> </g> <g id="xtick_2"> <g id="line2d_7"> <g> <use style="stroke:#000000;stroke-width:0.5;" x="155.1571875" xlink:href="#m93b0483c22" y="398.52"></use> </g> </g> <g id="line2d_8"> <g> <use style="stroke:#000000;stroke-width:0.5;" x="155.1571875" xlink:href="#m741efc42ff" y="44.28"></use> </g> </g> <g id="text_2">  <defs> <path d=" M37.7969 64.3125 L12.8906 25.3906 L37.7969 25.3906 z M35.2031 72.9062 L47.6094 72.9062 L47.6094 25.3906 L58.0156 25.3906 L58.0156 17.1875 L47.6094 17.1875 L47.6094 0 L37.7969 0 L37.7969 17.1875 L4.89062 17.1875 L4.89062 26.7031 z " id="BitstreamVeraSans-Roman-34"></path> </defs> <g transform="translate(144.3965625 411.638125)scale(0.12 -0.12)"> <use xlink:href="#BitstreamVeraSans-Roman-34"></use> <use x="63.623046875" xlink:href="#BitstreamVeraSans-Roman-30"></use> <use x="127.24609375" xlink:href="#BitstreamVeraSans-Roman-30"></use> </g> </g> </g> <g id="xtick_3"> <g id="line2d_9"> <g> <use style="stroke:#000000;stroke-width:0.5;" x="222.901875" xlink:href="#m93b0483c22" y="398.52"></use> </g> </g> <g id="line2d_10"> <g> <use style="stroke:#000000;stroke-width:0.5;" x="222.901875" xlink:href="#m741efc42ff" y="44.28"></use> </g> </g> <g id="text_3">  <g transform="translate(212.14125 411.638125)scale(0.12 -0.12)"> <use xlink:href="#BitstreamVeraSans-Roman-34"></use> <use x="63.623046875" xlink:href="#BitstreamVeraSans-Roman-35"></use> <use x="127.24609375" xlink:href="#BitstreamVeraSans-Roman-30"></use> </g> </g> </g> <g id="xtick_4"> <g id="line2d_11"> <g> <use style="stroke:#000000;stroke-width:0.5;" x="290.6465625" xlink:href="#m93b0483c22" y="398.52"></use> </g> </g> <g id="line2d_12"> <g> <use style="stroke:#000000;stroke-width:0.5;" x="290.6465625" xlink:href="#m741efc42ff" y="44.28"></use> </g> </g> <g id="text_4">  <g transform="translate(280.055625 411.638125)scale(0.12 -0.12)"> <use xlink:href="#BitstreamVeraSans-Roman-35"></use> <use x="63.623046875" xlink:href="#BitstreamVeraSans-Roman-30"></use> <use x="127.24609375" xlink:href="#BitstreamVeraSans-Roman-30"></use> </g> </g> </g> <g id="xtick_5"> <g id="line2d_13"> <g> <use style="stroke:#000000;stroke-width:0.5;" x="358.39125" xlink:href="#m93b0483c22" y="398.52"></use> </g> </g> <g id="line2d_14"> <g> <use style="stroke:#000000;stroke-width:0.5;" x="358.39125" xlink:href="#m741efc42ff" y="44.28"></use> </g> </g> <g id="text_5">  <g transform="translate(347.8003125 411.638125)scale(0.12 -0.12)"> <use xlink:href="#BitstreamVeraSans-Roman-35"></use> <use x="63.623046875" xlink:href="#BitstreamVeraSans-Roman-35"></use> <use x="127.24609375" xlink:href="#BitstreamVeraSans-Roman-30"></use> </g> </g> </g> <g id="xtick_6"> <g id="line2d_15"> <g> <use style="stroke:#000000;stroke-width:0.5;" x="426.1359375" xlink:href="#m93b0483c22" y="398.52"></use> </g> </g> <g id="line2d_16"> <g> <use style="stroke:#000000;stroke-width:0.5;" x="426.1359375" xlink:href="#m741efc42ff" y="44.28"></use> </g> </g> <g id="text_6">  <defs> <path d=" M33.0156 40.375 Q26.375 40.375 22.4844 35.8281 Q18.6094 31.2969 18.6094 23.3906 Q18.6094 15.5312 22.4844 10.9531 Q26.375 6.39062 33.0156 6.39062 Q39.6562 6.39062 43.5312 10.9531 Q47.4062 15.5312 47.4062 23.3906 Q47.4062 31.2969 43.5312 35.8281 Q39.6562 40.375 33.0156 40.375 M52.5938 71.2969 L52.5938 62.3125 Q48.875 64.0625 45.0938 64.9844 Q41.3125 65.9219 37.5938 65.9219 Q27.8281 65.9219 22.6719 59.3281 Q17.5312 52.7344 16.7969 39.4062 Q19.6719 43.6562 24.0156 45.9219 Q28.375 48.1875 33.5938 48.1875 Q44.5781 48.1875 50.9531 41.5156 Q57.3281 34.8594 57.3281 23.3906 Q57.3281 12.1562 50.6875 5.35938 Q44.0469 -1.42188 33.0156 -1.42188 Q20.3594 -1.42188 13.6719 8.26562 Q6.98438 17.9688 6.98438 36.375 Q6.98438 53.6562 15.1875 63.9375 Q23.3906 74.2188 37.2031 74.2188 Q40.9219 74.2188 44.7031 73.4844 Q48.4844 72.75 52.5938 71.2969" id="BitstreamVeraSans-Roman-36"></path> </defs> <g transform="translate(415.5009375 411.638125)scale(0.12 -0.12)"> <use xlink:href="#BitstreamVeraSans-Roman-36"></use> <use x="63.623046875" xlink:href="#BitstreamVeraSans-Roman-30"></use> <use x="127.24609375" xlink:href="#BitstreamVeraSans-Roman-30"></use> </g> </g> </g> <g id="xtick_7"> <g id="line2d_17"> <g> <use style="stroke:#000000;stroke-width:0.5;" x="493.880625" xlink:href="#m93b0483c22" y="398.52"></use> </g> </g> <g id="line2d_18"> <g> <use style="stroke:#000000;stroke-width:0.5;" x="493.880625" xlink:href="#m741efc42ff" y="44.28"></use> </g> </g> <g id="text_7">  <g transform="translate(483.245625 411.638125)scale(0.12 -0.12)"> <use xlink:href="#BitstreamVeraSans-Roman-36"></use> <use x="63.623046875" xlink:href="#BitstreamVeraSans-Roman-35"></use> <use x="127.24609375" xlink:href="#BitstreamVeraSans-Roman-30"></use> </g> </g> </g> <g id="xtick_8"> <g id="line2d_19"> <g> <use style="stroke:#000000;stroke-width:0.5;" x="561.6253125" xlink:href="#m93b0483c22" y="398.52"></use> </g> </g> <g id="line2d_20"> <g> <use style="stroke:#000000;stroke-width:0.5;" x="561.6253125" xlink:href="#m741efc42ff" y="44.28"></use> </g> </g> <g id="text_8">  <defs> <path d=" M8.20312 72.9062 L55.0781 72.9062 L55.0781 68.7031 L28.6094 0 L18.3125 0 L43.2188 64.5938 L8.20312 64.5938 z " id="BitstreamVeraSans-Roman-37"></path> </defs> <g transform="translate(551.0634375 411.638125)scale(0.12 -0.12)"> <use xlink:href="#BitstreamVeraSans-Roman-37"></use> <use x="63.623046875" xlink:href="#BitstreamVeraSans-Roman-30"></use> <use x="127.24609375" xlink:href="#BitstreamVeraSans-Roman-30"></use> </g> </g> </g> <g id="xtick_9"> <g id="line2d_21"> <g> <use style="stroke:#000000;stroke-width:0.5;" x="629.37" xlink:href="#m93b0483c22" y="398.52"></use> </g> </g> <g id="line2d_22"> <g> <use style="stroke:#000000;stroke-width:0.5;" x="629.37" xlink:href="#m741efc42ff" y="44.28"></use> </g> </g> <g id="text_9">  <g transform="translate(618.808125 411.638125)scale(0.12 -0.12)"> <use xlink:href="#BitstreamVeraSans-Roman-37"></use> <use x="63.623046875" xlink:href="#BitstreamVeraSans-Roman-35"></use> <use x="127.24609375" xlink:href="#BitstreamVeraSans-Roman-30"></use> </g> </g> </g> </g> <g id="matplotlib.axis_2"> <g id="ytick_1"> <g id="line2d_23"> <defs> <path d=" M0 0 L4 0" id="m728421d6d4" style="stroke:#000000;stroke-width:0.5;"></path> </defs> <g> <use style="stroke:#000000;stroke-width:0.5;" x="87.4125" xlink:href="#m728421d6d4" y="398.52"></use> </g> </g> <g id="line2d_24"> <defs> <path d=" M0 0 L-4 0" id="mcb0005524f" style="stroke:#000000;stroke-width:0.5;"></path> </defs> <g> <use style="stroke:#000000;stroke-width:0.5;" x="629.37" xlink:href="#mcb0005524f" y="398.52"></use> </g> </g> <g id="text_10">  <defs> <path d=" M10.5938 35.5 L73.1875 35.5 L73.1875 27.2031 L10.5938 27.2031 z " id="BitstreamVeraSans-Roman-2212"></path> <path d=" M19.1875 8.29688 L53.6094 8.29688 L53.6094 0 L7.32812 0 L7.32812 8.29688 Q12.9375 14.1094 22.625 23.8906 Q32.3281 33.6875 34.8125 36.5312 Q39.5469 41.8438 41.4219 45.5312 Q43.3125 49.2188 43.3125 52.7812 Q43.3125 58.5938 39.2344 62.25 Q35.1562 65.9219 28.6094 65.9219 Q23.9688 65.9219 18.8125 64.3125 Q13.6719 62.7031 7.8125 59.4219 L7.8125 69.3906 Q13.7656 71.7812 18.9375 73 Q24.125 74.2188 28.4219 74.2188 Q39.75 74.2188 46.4844 68.5469 Q53.2188 62.8906 53.2188 53.4219 Q53.2188 48.9219 51.5312 44.8906 Q49.8594 40.875 45.4062 35.4062 Q44.1875 33.9844 37.6406 27.2188 Q31.1094 20.4531 19.1875 8.29688" id="BitstreamVeraSans-Roman-32"></path> <path d=" M10.6875 12.4062 L21 12.4062 L21 0 L10.6875 0 z " id="BitstreamVeraSans-Roman-2e"></path> </defs> <g transform="translate(56.74625 401.83125)scale(0.12 -0.12)"> <use xlink:href="#BitstreamVeraSans-Roman-2212"></use> <use x="83.7890625" xlink:href="#BitstreamVeraSans-Roman-30"></use> <use x="147.412109375" xlink:href="#BitstreamVeraSans-Roman-2e"></use> <use x="179.19921875" xlink:href="#BitstreamVeraSans-Roman-32"></use> </g> </g> </g> <g id="ytick_2"> <g id="line2d_25"> <g> <use style="stroke:#000000;stroke-width:0.5;" x="87.4125" xlink:href="#m728421d6d4" y="347.914285714"></use> </g> </g> <g id="line2d_26"> <g> <use style="stroke:#000000;stroke-width:0.5;" x="629.37" xlink:href="#mcb0005524f" y="347.914285714"></use> </g> </g> <g id="text_11">  <g transform="translate(65.916875 351.225535714)scale(0.12 -0.12)"> <use xlink:href="#BitstreamVeraSans-Roman-30"></use> <use x="63.623046875" xlink:href="#BitstreamVeraSans-Roman-2e"></use> <use x="95.41015625" xlink:href="#BitstreamVeraSans-Roman-30"></use> </g> </g> </g> <g id="ytick_3"> <g id="line2d_27"> <g> <use style="stroke:#000000;stroke-width:0.5;" x="87.4125" xlink:href="#m728421d6d4" y="297.308571429"></use> </g> </g> <g id="line2d_28"> <g> <use style="stroke:#000000;stroke-width:0.5;" x="629.37" xlink:href="#mcb0005524f" y="297.308571429"></use> </g> </g> <g id="text_12">  <g transform="translate(66.321875 300.619821429)scale(0.12 -0.12)"> <use xlink:href="#BitstreamVeraSans-Roman-30"></use> <use x="63.623046875" xlink:href="#BitstreamVeraSans-Roman-2e"></use> <use x="95.41015625" xlink:href="#BitstreamVeraSans-Roman-32"></use> </g> </g> </g> <g id="ytick_4"> <g id="line2d_29"> <g> <use style="stroke:#000000;stroke-width:0.5;" x="87.4125" xlink:href="#m728421d6d4" y="246.702857143"></use> </g> </g> <g id="line2d_30"> <g> <use style="stroke:#000000;stroke-width:0.5;" x="629.37" xlink:href="#mcb0005524f" y="246.702857143"></use> </g> </g> <g id="text_13">  <g transform="translate(65.793125 250.014107143)scale(0.12 -0.12)"> <use xlink:href="#BitstreamVeraSans-Roman-30"></use> <use x="63.623046875" xlink:href="#BitstreamVeraSans-Roman-2e"></use> <use x="95.41015625" xlink:href="#BitstreamVeraSans-Roman-34"></use> </g> </g> </g> <g id="ytick_5"> <g id="line2d_31"> <g> <use style="stroke:#000000;stroke-width:0.5;" x="87.4125" xlink:href="#m728421d6d4" y="196.097142857"></use> </g> </g> <g id="line2d_32"> <g> <use style="stroke:#000000;stroke-width:0.5;" x="629.37" xlink:href="#mcb0005524f" y="196.097142857"></use> </g> </g> <g id="text_14">  <g transform="translate(65.875625 199.408392857)scale(0.12 -0.12)"> <use xlink:href="#BitstreamVeraSans-Roman-30"></use> <use x="63.623046875" xlink:href="#BitstreamVeraSans-Roman-2e"></use> <use x="95.41015625" xlink:href="#BitstreamVeraSans-Roman-36"></use> </g> </g> </g> <g id="ytick_6"> <g id="line2d_33"> <g> <use style="stroke:#000000;stroke-width:0.5;" x="87.4125" xlink:href="#m728421d6d4" y="145.491428571"></use> </g> </g> <g id="line2d_34"> <g> <use style="stroke:#000000;stroke-width:0.5;" x="629.37" xlink:href="#mcb0005524f" y="145.491428571"></use> </g> </g> <g id="text_15">  <defs> <path d=" M31.7812 34.625 Q24.75 34.625 20.7188 30.8594 Q16.7031 27.0938 16.7031 20.5156 Q16.7031 13.9219 20.7188 10.1562 Q24.75 6.39062 31.7812 6.39062 Q38.8125 6.39062 42.8594 10.1719 Q46.9219 13.9688 46.9219 20.5156 Q46.9219 27.0938 42.8906 30.8594 Q38.875 34.625 31.7812 34.625 M21.9219 38.8125 Q15.5781 40.375 12.0312 44.7188 Q8.5 49.0781 8.5 55.3281 Q8.5 64.0625 14.7188 69.1406 Q20.9531 74.2188 31.7812 74.2188 Q42.6719 74.2188 48.875 69.1406 Q55.0781 64.0625 55.0781 55.3281 Q55.0781 49.0781 51.5312 44.7188 Q48 40.375 41.7031 38.8125 Q48.8281 37.1562 52.7969 32.3125 Q56.7812 27.4844 56.7812 20.5156 Q56.7812 9.90625 50.3125 4.23438 Q43.8438 -1.42188 31.7812 -1.42188 Q19.7344 -1.42188 13.25 4.23438 Q6.78125 9.90625 6.78125 20.5156 Q6.78125 27.4844 10.7812 32.3125 Q14.7969 37.1562 21.9219 38.8125 M18.3125 54.3906 Q18.3125 48.7344 21.8438 45.5625 Q25.3906 42.3906 31.7812 42.3906 Q38.1406 42.3906 41.7188 45.5625 Q45.3125 48.7344 45.3125 54.3906 Q45.3125 60.0625 41.7188 63.2344 Q38.1406 66.4062 31.7812 66.4062 Q25.3906 66.4062 21.8438 63.2344 Q18.3125 60.0625 18.3125 54.3906" id="BitstreamVeraSans-Roman-38"></path> </defs> <g transform="translate(65.94125 148.802678571)scale(0.12 -0.12)"> <use xlink:href="#BitstreamVeraSans-Roman-30"></use> <use x="63.623046875" xlink:href="#BitstreamVeraSans-Roman-2e"></use> <use x="95.41015625" xlink:href="#BitstreamVeraSans-Roman-38"></use> </g> </g> </g> <g id="ytick_7"> <g id="line2d_35"> <g> <use style="stroke:#000000;stroke-width:0.5;" x="87.4125" xlink:href="#m728421d6d4" y="94.8857142857"></use> </g> </g> <g id="line2d_36"> <g> <use style="stroke:#000000;stroke-width:0.5;" x="629.37" xlink:href="#mcb0005524f" y="94.8857142857"></use> </g> </g> <g id="text_16">  <defs> <path d=" M12.4062 8.29688 L28.5156 8.29688 L28.5156 63.9219 L10.9844 60.4062 L10.9844 69.3906 L28.4219 72.9062 L38.2812 72.9062 L38.2812 8.29688 L54.3906 8.29688 L54.3906 0 L12.4062 0 z " id="BitstreamVeraSans-Roman-31"></path> </defs> <g transform="translate(66.44375 98.1969642857)scale(0.12 -0.12)"> <use xlink:href="#BitstreamVeraSans-Roman-31"></use> <use x="63.623046875" xlink:href="#BitstreamVeraSans-Roman-2e"></use> <use x="95.41015625" xlink:href="#BitstreamVeraSans-Roman-30"></use> </g> </g> </g> <g id="ytick_8"> <g id="line2d_37"> <g> <use style="stroke:#000000;stroke-width:0.5;" x="87.4125" xlink:href="#m728421d6d4" y="44.28"></use> </g> </g> <g id="line2d_38"> <g> <use style="stroke:#000000;stroke-width:0.5;" x="629.37" xlink:href="#mcb0005524f" y="44.28"></use> </g> </g> <g id="text_17">  <g transform="translate(66.84875 47.59125)scale(0.12 -0.12)"> <use xlink:href="#BitstreamVeraSans-Roman-31"></use> <use x="63.623046875" xlink:href="#BitstreamVeraSans-Roman-2e"></use> <use x="95.41015625" xlink:href="#BitstreamVeraSans-Roman-32"></use> </g> </g> </g> </g> </g> </g> <defs> <clipPath id="pe6612f21aa"> <rect height="354.24" width="541.9575" x="87.4125" y="44.28"></rect> </clipPath> </defs> </svg> 