<?xml version="1.0"?>

<!-- Created with Inkscape (http://www.inkscape.org/) --> <svg width="127.57486" height="67.279778" viewBox="0 0 127.57486 67.279778" version="1.1" id="svg5" inkscape:version="1.1 (c68e22c387, 2021-05-23)" sodipodi:docname="specular_horizon_occlusion_2.svg" xmlns:inkscape="http://www.inkscape.org/namespaces/inkscape" xmlns:sodipodi="http://sodipodi.sourceforge.net/DTD/sodipodi-0.dtd" xmlns="http://www.w3.org/2000/svg" xmlns:svg="http://www.w3.org/2000/svg"> <sodipodi:namedview id="namedview7" pagecolor="#ffffff" bordercolor="#666666" borderopacity="1.0" inkscape:pageshadow="2" inkscape:pageopacity="0.0" inkscape:pagecheckerboard="0" inkscape:document-units="mm" showgrid="false" showguides="false" inkscape:zoom="3.1108586" inkscape:cx="291.72011" inkscape:cy="121.18841" inkscape:window-width="3840" inkscape:window-height="2080" inkscape:window-x="-11" inkscape:window-y="-11" inkscape:window-maximized="1" inkscape:current-layer="layer1" width="100mm" inkscape:snap-intersection-paths="true" inkscape:object-paths="true" inkscape:snap-smooth-nodes="true" inkscape:snap-global="true" fit-margin-left="10" fit-margin-top="10" fit-margin-right="10" fit-margin-bottom="10"></sodipodi:namedview> <defs id="defs2"> <marker style="overflow:visible" id="DotS" refX="0" refY="0" orient="auto" inkscape:stockid="DotS" inkscape:isstock="true"> <path transform="matrix(0.2,0,0,0.2,1.48,0.2)" style="fill:context-stroke;fill-rule:evenodd;stroke:context-stroke;stroke-width:1pt" d="m -2.5,-1 c 0,2.76 -2.24,5 -5,5 -2.76,0 -5,-2.24 -5,-5 0,-2.76 2.24,-5 5,-5 2.76,0 5,2.24 5,5 z" id="path4999"></path> </marker> <marker style="overflow:visible" id="TriangleOutM" refX="0" refY="0" orient="auto" inkscape:stockid="TriangleOutM" inkscape:isstock="true"> <path transform="scale(0.4)" style="fill:context-stroke;fill-rule:evenodd;stroke:context-stroke;stroke-width:1pt" d="M 5.77,0 -2.88,5 V -5 Z" id="path5077"></path> </marker> <marker style="overflow:visible" id="Arrow2Lend" refX="0" refY="0" orient="auto" inkscape:stockid="Arrow2Lend" inkscape:isstock="true"> <path transform="matrix(-1.1,0,0,-1.1,-1.1,0)" d="M 8.7185878,4.0337352 -2.2072895,0.01601326 8.7185884,-4.0017078 c -1.7454984,2.3720609 -1.7354408,5.6174519 -6e-7,8.035443 z" style="fill:context-stroke;fill-rule:evenodd;stroke-width:0.625;stroke-linejoin:round" id="path4953"></path> </marker> <marker style="overflow:visible" id="DotL" refX="0" refY="0" orient="auto" inkscape:stockid="DotL" inkscape:isstock="true"> <path transform="matrix(0.8,0,0,0.8,5.92,0.8)" style="fill:context-stroke;fill-rule:evenodd;stroke:context-stroke;stroke-width:1pt" d="m -2.5,-1 c 0,2.76 -2.24,5 -5,5 -2.76,0 -5,-2.24 -5,-5 0,-2.76 2.24,-5 5,-5 2.76,0 5,2.24 5,5 z" id="path4993"></path> </marker> <marker style="overflow:visible" id="TriangleOutL" refX="0" refY="0" orient="auto" inkscape:stockid="TriangleOutL" inkscape:isstock="true"> <path transform="scale(0.4)" style="fill:context-stroke;fill-rule:evenodd;stroke:context-stroke;stroke-width:1pt" d="M 5.77,0 -2.88,5 V -5 Z" id="path5074"></path> </marker> <marker style="overflow:visible" id="Arrow1Lend" refX="0" refY="0" orient="auto" inkscape:stockid="Arrow1Lend" inkscape:isstock="true"> <path transform="matrix(-0.8,0,0,-0.8,-10,0)" style="fill:context-stroke;fill-rule:evenodd;stroke:context-stroke;stroke-width:1pt" d="M 0,0 5,-5 -12.5,0 5,5 Z" id="path4935"></path> </marker> </defs> <g inkscape:label="Layer 1" inkscape:groupmode="layer" id="layer1" transform="translate(-10.632662,-18.680497)"> <rect style="fill:none;stroke:#000000;stroke-width:1.8529" id="rect1541" width="53.103115" height="51.951546" x="242.71358" y="168.32748" transform="matrix(0.98968774,0.14324165,-0.98849764,0.1512363,0,0)"></rect> <path style="opacity:0.2;fill:#000000;stroke:none;stroke-width:0.264583px;stroke-linecap:butt;stroke-linejoin:miter;stroke-opacity:1" d="M 75.185565,68.211339 V 36.91237 l 27.064955,-8.231873 v 31.298967 z" id="path8569"></path> <path style="fill:none;stroke:#000000;stroke-width:0.7;stroke-linecap:butt;stroke-linejoin:miter;stroke-miterlimit:4;stroke-dasharray:none;stroke-opacity:1;marker-start:url(#DotS);marker-end:url(#TriangleOutM)" d="M 75.185567,68.21134 V 36.91237" id="path4930"></path> <path style="fill:none;stroke:#000000;stroke-width:0.7;stroke-linecap:butt;stroke-linejoin:miter;stroke-miterlimit:4;stroke-dasharray:none;stroke-opacity:1;marker-start:url(#DotS);marker-end:url(#TriangleOutM)" d="M 75.185567,68.21134 102.25052,59.979466" id="path7131" sodipodi:nodetypes="cc"></path> <path style="fill:none;stroke:#000000;stroke-width:0.7;stroke-linecap:butt;stroke-linejoin:miter;stroke-miterlimit:4;stroke-dasharray:none;stroke-opacity:1;marker-start:url(#DotS);marker-end:url(#TriangleOutM)" d="M 75.185567,68.21134 92.037858,40.820588" id="path7985" sodipodi:nodetypes="cc"></path> <path style="opacity:1;fill:none;stroke:#000000;stroke-width:0.25;stroke-miterlimit:4;stroke-dasharray:0.2, 0.4;stroke-dashoffset:0;stroke-opacity:1;paint-order:markers fill stroke" id="path9234" d="M 75.036889,53.788292 A 14.423816,14.423816 0 0 1 89.067563,64.29513" sodipodi:type="arc" sodipodi:arc-type="arc" sodipodi:start="4.7020808" sodipodi:end="6.0082236" sodipodi:ry="14.423816" sodipodi:rx="14.423816" sodipodi:cy="68.211342" sodipodi:cx="75.18557" sodipodi:open="true"></path> <path style="fill:none;stroke:#000000;stroke-width:0.264583px;stroke-linecap:butt;stroke-linejoin:miter;stroke-opacity:1" d="m 70.877012,68.740506 -0.02127,-4.124999 h 3.954899" id="path9806"></path> <path style="opacity:1;fill:none;stroke:#000000;stroke-width:0.25;stroke-miterlimit:4;stroke-dasharray:0.2, 0.4;stroke-dashoffset:0;stroke-opacity:1;paint-order:markers fill stroke" id="path10182" d="m 75.080841,48.643488 a 19.532431,19.532431 0 0 1 10.475691,2.919543" sodipodi:type="arc" sodipodi:arc-type="arc" sodipodi:start="4.7020808" sodipodi:end="5.2662971" sodipodi:ry="19.532431" sodipodi:rx="19.532431" sodipodi:cy="68.174881" sodipodi:cx="75.282181" sodipodi:open="true"></path> <path style="opacity:0.3;fill:none;fill-opacity:1;stroke:none;stroke-width:0.944882;stroke-miterlimit:4;stroke-dasharray:none;stroke-dashoffset:0;stroke-opacity:1;paint-order:markers fill stroke" id="path13072" sodipodi:type="arc" sodipodi:cx="119.81496" sodipodi:cy="55.584881" sodipodi:rx="0.015035131" sodipodi:ry="0.07517565" sodipodi:start="0.67837457" sodipodi:end="1.5281073" sodipodi:open="true" sodipodi:arc-type="arc" d="m 119.82666,55.632056 a 0.01503513,0.07517565 0 0 1 -0.0111,0.02793"></path> <rect style="display:inline;opacity:0.3;fill:#000000;fill-opacity:1;stroke:none;stroke-width:1.8529" id="rect10751" width="53.103115" height="51.951546" x="242.71358" y="168.32748" transform="matrix(0.98968774,0.14324165,-0.98849764,0.1512363,0,0)"></rect> </g> <g inkscape:groupmode="layer" id="layer2" inkscape:label="Layer 2" transform="translate(-10.632662,-18.680497)"></g>
</svg>
