<?xml version="1.0"?>

<!-- Created with Inkscape (http://www.inkscape.org/) --> <svg width="127.57486" height="67.279778" viewBox="0 0 127.57486 67.279778" version="1.1" id="svg5" inkscape:version="1.1 (c68e22c387, 2021-05-23)" sodipodi:docname="specular_horizon_occlusion_0.svg" xmlns:inkscape="http://www.inkscape.org/namespaces/inkscape" xmlns:sodipodi="http://sodipodi.sourceforge.net/DTD/sodipodi-0.dtd" xmlns="http://www.w3.org/2000/svg" xmlns:svg="http://www.w3.org/2000/svg"> <sodipodi:namedview id="namedview7" pagecolor="#ffffff" bordercolor="#666666" borderopacity="1.0" inkscape:pageshadow="2" inkscape:pageopacity="0.0" inkscape:pagecheckerboard="0" inkscape:document-units="mm" showgrid="false" showguides="false" inkscape:zoom="4.3994184" inkscape:cx="228.66659" inkscape:cy="173.88662" inkscape:window-width="3840" inkscape:window-height="2080" inkscape:window-x="-11" inkscape:window-y="-11" inkscape:window-maximized="1" inkscape:current-layer="layer1" width="100mm" inkscape:snap-intersection-paths="true" inkscape:object-paths="true" inkscape:snap-smooth-nodes="true" inkscape:snap-global="true" fit-margin-left="10" fit-margin-top="10" fit-margin-right="10" fit-margin-bottom="10"></sodipodi:namedview> <defs id="defs2"> <marker style="overflow:visible" id="DotS" refX="0" refY="0" orient="auto" inkscape:stockid="DotS" inkscape:isstock="true"> <path transform="matrix(0.2,0,0,0.2,1.48,0.2)" style="fill:context-stroke;fill-rule:evenodd;stroke:context-stroke;stroke-width:1pt" d="m -2.5,-1 c 0,2.76 -2.24,5 -5,5 -2.76,0 -5,-2.24 -5,-5 0,-2.76 2.24,-5 5,-5 2.76,0 5,2.24 5,5 z" id="path4999"></path> </marker> <marker style="overflow:visible" id="TriangleOutM" refX="0" refY="0" orient="auto" inkscape:stockid="TriangleOutM" inkscape:isstock="true"> <path transform="scale(0.4)" style="fill:context-stroke;fill-rule:evenodd;stroke:context-stroke;stroke-width:1pt" d="M 5.77,0 -2.88,5 V -5 Z" id="path5077"></path> </marker> <marker style="overflow:visible" id="Arrow2Lend" refX="0" refY="0" orient="auto" inkscape:stockid="Arrow2Lend" inkscape:isstock="true"> <path transform="matrix(-1.1,0,0,-1.1,-1.1,0)" d="M 8.7185878,4.0337352 -2.2072895,0.01601326 8.7185884,-4.0017078 c -1.7454984,2.3720609 -1.7354408,5.6174519 -6e-7,8.035443 z" style="fill:context-stroke;fill-rule:evenodd;stroke-width:0.625;stroke-linejoin:round" id="path4953"></path> </marker> <marker style="overflow:visible" id="DotL" refX="0" refY="0" orient="auto" inkscape:stockid="DotL" inkscape:isstock="true"> <path transform="matrix(0.8,0,0,0.8,5.92,0.8)" style="fill:context-stroke;fill-rule:evenodd;stroke:context-stroke;stroke-width:1pt" d="m -2.5,-1 c 0,2.76 -2.24,5 -5,5 -2.76,0 -5,-2.24 -5,-5 0,-2.76 2.24,-5 5,-5 2.76,0 5,2.24 5,5 z" id="path4993"></path> </marker> <marker style="overflow:visible" id="TriangleOutL" refX="0" refY="0" orient="auto" inkscape:stockid="TriangleOutL" inkscape:isstock="true"> <path transform="scale(0.4)" style="fill:context-stroke;fill-rule:evenodd;stroke:context-stroke;stroke-width:1pt" d="M 5.77,0 -2.88,5 V -5 Z" id="path5074"></path> </marker> <marker style="overflow:visible" id="Arrow1Lend" refX="0" refY="0" orient="auto" inkscape:stockid="Arrow1Lend" inkscape:isstock="true"> <path transform="matrix(-0.8,0,0,-0.8,-10,0)" style="fill:context-stroke;fill-rule:evenodd;stroke:context-stroke;stroke-width:1pt" d="M 0,0 5,-5 -12.5,0 5,5 Z" id="path4935"></path> </marker> </defs> <g inkscape:label="Layer 1" inkscape:groupmode="layer" id="layer1" transform="translate(-10.632662,-18.680497)"> <ellipse style="opacity:1;fill:#cccccc;fill-opacity:1;stroke:none;stroke-width:0.25;stroke-miterlimit:4;stroke-dasharray:none;stroke-dashoffset:0;stroke-opacity:1;paint-order:markers fill stroke" id="ellipse13012" inkscape:transform-center-y="-10.69776" transform="matrix(0.98823686,-0.15293105,0.15304904,0.9882186,0,0)" inkscape:transform-center-x="1.656788" ry="10.885435" rx="2.8867447" cy="74.805328" cx="96.766655"></ellipse> <path style="fill:#cccccc;stroke:none;stroke-width:0.25;stroke-linecap:butt;stroke-linejoin:miter;stroke-opacity:1" d="M 108.74326,69.88258 74.701758,68.464165 105.13793,48.463692" id="path10525" sodipodi:nodetypes="ccc"></path> <rect style="fill:none;stroke:#000000;stroke-width:1.8529" id="rect1541" width="53.103115" height="51.951546" x="242.71358" y="168.32748" transform="matrix(0.98968774,0.14324165,-0.98849764,0.1512363,0,0)"></rect> <path style="fill:none;stroke:#000000;stroke-width:0.7;stroke-linecap:butt;stroke-linejoin:miter;stroke-miterlimit:4;stroke-dasharray:none;stroke-opacity:1;marker-start:url(#DotS);marker-end:url(#TriangleOutM)" d="M 75.185567,68.21134 V 36.91237" id="path4930"></path> <path style="fill:none;stroke:#000000;stroke-width:0.7;stroke-linecap:butt;stroke-linejoin:miter;stroke-miterlimit:4;stroke-dasharray:none;stroke-opacity:1;marker-start:url(#DotS);marker-end:url(#TriangleOutM)" d="M 75.185567,68.21134 94.804322,52.006726" id="path5320" sodipodi:nodetypes="cc"></path> <path style="fill:none;stroke:#000000;stroke-width:0.7;stroke-linecap:butt;stroke-linejoin:miter;stroke-miterlimit:4;stroke-dasharray:none;stroke-opacity:1;marker-start:url(#DotS);marker-end:url(#TriangleOutM)" d="M 75.185567,68.21134 102.25052,59.979466" id="path7131" sodipodi:nodetypes="cc"></path> <path style="opacity:1;fill:none;stroke:#000000;stroke-width:0.25;stroke-miterlimit:4;stroke-dasharray:0.2, 0.4;stroke-dashoffset:0;stroke-opacity:1;paint-order:markers fill stroke" id="path9234" d="m 87.212547,60.248807 a 14.424,14.423816 0 0 1 1.855194,4.046323" sodipodi:type="arc" sodipodi:arc-type="arc" sodipodi:start="5.6983755" sodipodi:end="6.0082236" sodipodi:ry="14.423816" sodipodi:rx="14.424" sodipodi:cy="68.211342" sodipodi:cx="75.18557" sodipodi:open="true"></path> <path style="fill:none;stroke:#000000;stroke-width:0.264583px;stroke-linecap:butt;stroke-linejoin:miter;stroke-opacity:1" d="m 70.877012,68.740506 -0.02127,-4.124999 h 3.954899" id="path9806"></path> <path style="fill:none;stroke:#000000;stroke-width:0.264583;stroke-linecap:butt;stroke-linejoin:miter;stroke-miterlimit:4;stroke-dasharray:0.264583, 0.264583;stroke-dashoffset:0;stroke-opacity:1" d="M 75.185565,68.211339 110.34508,65.510885" id="path11954"></path> <path style="opacity:1;fill:none;stroke:#000000;stroke-width:0.25;stroke-miterlimit:4;stroke-dasharray:0.2, 0.4;stroke-dashoffset:0;stroke-opacity:1;paint-order:markers fill stroke" id="path12036" d="m 89.569707,67.142203 a 14.423816,14.423816 0 0 1 0.01393,1.930693" sodipodi:type="arc" sodipodi:arc-type="arc" sodipodi:start="6.2089941" sodipodi:end="0.059766944" sodipodi:ry="14.423816" sodipodi:rx="14.423816" sodipodi:cy="68.211342" sodipodi:cx="75.18557" sodipodi:open="true"></path> <path style="opacity:1;fill:none;fill-opacity:1;stroke:#000000;stroke-width:0.25;stroke-miterlimit:4;stroke-dasharray:0.25, 0.25;stroke-dashoffset:0;stroke-opacity:1;paint-order:markers fill stroke" id="ellipse12640" inkscape:transform-center-y="-10.69776" transform="matrix(0.98823686,-0.15293105,0.15304904,0.9882186,0,0)" inkscape:transform-center-x="1.656788" sodipodi:type="arc" sodipodi:cx="96.766655" sodipodi:cy="74.805328" sodipodi:rx="2.8867447" sodipodi:ry="10.885435" sodipodi:start="0.6783749" sodipodi:end="1.5281072" sodipodi:arc-type="arc" d="M 99.014256,81.63625 A 2.8867447,10.885435 0 0 1 96.88985,85.680846" sodipodi:open="true"></path> <path style="opacity:0.3;fill:none;fill-opacity:1;stroke:none;stroke-width:0.944882;stroke-miterlimit:4;stroke-dasharray:none;stroke-dashoffset:0;stroke-opacity:1;paint-order:markers fill stroke" id="path13072" sodipodi:type="arc" sodipodi:cx="119.81496" sodipodi:cy="55.584881" sodipodi:rx="0.015035131" sodipodi:ry="0.07517565" sodipodi:start="0.67837457" sodipodi:end="1.5281073" sodipodi:open="true" sodipodi:arc-type="arc" d="m 119.82666,55.632056 a 0.01503513,0.07517565 0 0 1 -0.0111,0.02793"></path> <path style="fill:#e6e6e6;stroke:#000000;stroke-width:0.25;stroke-linecap:butt;stroke-linejoin:miter;stroke-miterlimit:4;stroke-dasharray:0.25, 0.25;stroke-dashoffset:0;stroke-opacity:1" d="M 108.74326,69.88258 74.701758,68.464165" id="path13412" sodipodi:nodetypes="cc"></path> <path style="fill:none;stroke:#000000;stroke-width:0.25;stroke-linecap:butt;stroke-linejoin:miter;stroke-opacity:1" d="M 74.701758,68.464165 105.13793,48.463692" id="path13607" sodipodi:nodetypes="cc"></path> <rect style="opacity:0.3;fill:#000000;fill-opacity:1;stroke:none;stroke-width:1.8529" id="rect10751" width="53.103115" height="51.951546" x="242.71358" y="168.32748" transform="matrix(0.98968774,0.14324165,-0.98849764,0.1512363,0,0)"></rect> <path style="opacity:1;fill:none;fill-opacity:1;stroke:#000000;stroke-width:0.25;stroke-miterlimit:4;stroke-dasharray:none;stroke-dashoffset:0;stroke-opacity:1;paint-order:markers fill stroke" id="path21034" inkscape:transform-center-y="-10.69776" transform="matrix(0.98823686,-0.15293105,0.15304904,0.9882186,0,0)" inkscape:transform-center-x="1.656788" sodipodi:type="arc" sodipodi:cx="96.76667" sodipodi:cy="74.805336" sodipodi:rx="2.8870001" sodipodi:ry="10.885435" sodipodi:start="4.5862017" sodipodi:end="0.67837457" sodipodi:arc-type="arc" sodipodi:open="true" d="m 96.403334,64.006452 a 2.8870001,10.885435 0 0 1 2.883929,5.491471 2.8870001,10.885435 0 0 1 -0.272793,12.138332"></path> </g> <g inkscape:groupmode="layer" id="layer2" inkscape:label="Layer 2" transform="translate(-10.632662,-18.680497)"></g>
</svg>
