<?xml version="1.0"?>

<svg viewBox="142.834 84.14 137.329 128.648" xmlns="http://www.w3.org/2000/svg" xmlns:bx="https://boxy-svg.com" width="137.329" height="128.648"> <defs> <marker id="marker-0" viewBox="0 0 100 100" overflow="visible" orient="auto" refX="50" refY="50" bx:pinned="true"> <title>Arrow</title> <path d="M 72.96 2.99 L 122.96 102.99 L 22.96 102.99 L 72.96 2.99 Z" style="" transform="matrix(0, 1, -1, 0, 102.989906, -22.959976)" bx:shape="triangle 22.96 2.99 100 100 0.5 0 1@0bf8184f"></path> </marker> </defs> <path style="fill: none; stroke: rgb(0, 0, 255);" d="M 182.256 144.928 C 182.256 144.928 181.863 144.637 183.277 136.156 C 184.691 127.675 184.604 130.611 184.604 126.653 C 184.604 122.695 152.922 96.409 154.4 95.042 C 155.878 93.675 184.833 121.707 189.356 121.141 C 193.879 120.575 190.911 120.535 199.958 118.273 C 209.005 116.011 209.5 116.011 209.5 116.011"></path> <path style="fill: none; stroke: rgb(0, 255, 0);" d="M 180.096 152.389 C 180.096 152.389 180.096 147.582 181.51 139.101 C 182.924 130.62 182.64 133.163 182.64 129.205 C 182.64 125.247 160.973 105.049 163.236 102.504 C 165.499 99.959 186.403 119.756 190.926 119.19 C 195.449 118.624 196.212 117.786 205.259 115.524 C 214.306 113.262 216.568 113.655 216.568 113.655"></path> <path style="fill: none; stroke: rgb(255, 0, 0);" d="M 180.096 167.091 C 180.096 167.091 177.269 154.085 178.683 145.604 C 180.097 137.123 180.697 134.695 180.697 130.737 C 180.697 126.779 169.046 114.158 172.157 110.765 C 175.268 107.372 188.52 117.613 193.043 117.047 C 197.566 116.481 200.453 114.959 209.5 112.697 C 218.547 110.435 234.097 111.959 234.097 111.959"></path> <circle style="stroke: rgb(0, 0, 0); fill: rgb(231, 231, 231);" cx="227.436" cy="159.746" r="48.18"></circle> <line style="stroke: rgb(0, 0, 0); paint-order: fill; marker-end: url(#marker-0);" x1="227.4" y1="159.7" x2="229.898" y2="55.849" transform="matrix(0.642788, -0.766044, 0.766044, 0.642788, -41.107198, 231.245338)" bx:origin="0 1"></line> <line style="stroke: rgb(0, 0, 0); paint-order: fill; marker-end: url(#marker-0);" x1="227.4" y1="159.7" x2="227.4" y2="90.137" bx:origin="0 1"></line> <path style="stroke: rgb(0, 0, 0); fill: none;" d="M 215.791 154.426 C 215.791 154.426 218.418 146.767 227.029 147.017"></path> <line style="stroke: rgb(0, 0, 0); paint-order: fill; marker-end: url(#marker-0);" x1="227.4" y1="159.7" x2="273.949" y2="159.7" bx:origin="0 1"></line> <line style="stroke: rgb(0, 0, 0); paint-order: fill; marker-end: url(#marker-0);" x1="227.4" y1="159.7" x2="149.383" y2="126.4" bx:origin="0 1"></line> <path style="stroke: rgb(0, 0, 0); fill: none;" d="M 206.427 142.02 C 206.427 142.02 213.591 132.124 227.029 132.017"></path>
</svg>