<?xml version="1.0"?>

<svg viewBox="40.3 160.3 726 428.8" xmlns="http://www.w3.org/2000/svg" width="726" height="428.8"> <g transform="matrix(2, 0, 0, 2, 0, 0)"> <g id="background-de63e300"> <rect fill="white" stroke="none" x="0" y="0" width="400" height="400" class="dcg-svg-background"></rect> </g> <g id="background-images-de63e300"></g> <g id="graphpaper-de63e300"> <g id="axis-de63e300"> <g id="yaxis-de63e300"> <title>Y axis</title> <path fill="none" stroke="rgb(0,0,0)" class="dcg-svg-axis-line" paint-order="fill stroke markers" d=" M 203 0 L 203 400" stroke-opacity="0.9" stroke-miterlimit="10" stroke-width="1.5" stroke-dasharray=""></path> </g> <g id="xaxis-de63e300"> <title>X axis</title> <path fill="none" stroke="rgb(0,0,0)" class="dcg-svg-axis-line" paint-order="fill stroke markers" d=" M 0 262 L 400 262" stroke-opacity="0.9" stroke-miterlimit="10" stroke-width="1.5" stroke-dasharray=""></path> </g> <g> <g class="dcg-svg-axis-value"> <text fill="none" stroke="#ffffff" font-family="Arial" font-size="14px" font-style="normal" font-weight="normal" text-decoration="normal" x="193.73877880318273" y="278.1621915003059" text-anchor="middle" stroke-miterlimit="2" stroke-width="3" stroke-dasharray="" style="white-space: pre;">0</text> <text fill="#000000" stroke="none" font-family="Arial" font-size="14px" font-style="normal" font-weight="normal" text-decoration="normal" x="193.73877880318273" y="278.1621915003059" text-anchor="middle" style="white-space: pre;">0</text> </g> <g> <path fill="none" stroke="rgb(0,0,0)" class="dcg-svg-tickmark" paint-order="fill stroke markers" d=" M 45 259 L 45 265 M 360 259 L 360 265 M 200 105 L 206 105" stroke-opacity="0.9" stroke-miterlimit="2" stroke-width="1.5" stroke-dasharray=""></path> </g> <g class="dcg-svg-axis-value"> <text fill="none" stroke="#ffffff" font-family="Arial" font-size="14px" font-style="normal" font-weight="normal" text-decoration="normal" x="42.825196546255654" y="278.1621915003059" text-anchor="middle" stroke-miterlimit="2" stroke-width="3" stroke-dasharray="" style="white-space: pre;">-0.01</text> <text fill="#000000" stroke="none" font-family="Arial" font-size="14px" font-style="normal" font-weight="normal" text-decoration="normal" x="42.825196546255654" y="278.1621915003059" text-anchor="middle" style="white-space: pre;">-0.01</text> </g> <g class="dcg-svg-axis-value"> <text fill="none" stroke="#ffffff" font-family="Arial" font-size="14px" font-style="normal" font-weight="normal" text-decoration="normal" x="360.1074391851098" y="278.1621915003059" text-anchor="middle" stroke-miterlimit="2" stroke-width="3" stroke-dasharray="" style="white-space: pre;">0.01</text> <text fill="#000000" stroke="none" font-family="Arial" font-size="14px" font-style="normal" font-weight="normal" text-decoration="normal" x="360.1074391851098" y="278.1621915003059" text-anchor="middle" style="white-space: pre;">0.01</text> </g> <g class="dcg-svg-axis-value"> <text fill="none" stroke="#ffffff" font-family="Arial" font-size="14px" font-style="normal" font-weight="normal" text-decoration="normal" x="184.00782177193273" y="108.6865975246288" text-anchor="middle" stroke-miterlimit="2" stroke-width="3" stroke-dasharray="" style="white-space: pre;">0.01</text> <text fill="#000000" stroke="none" font-family="Arial" font-size="14px" font-style="normal" font-weight="normal" text-decoration="normal" x="184.00782177193273" y="108.6865975246288" text-anchor="middle" style="white-space: pre;">0.01</text> </g> </g> </g> </g> <g id="expressions-de63e300"> <g id="sketch-de63e300"> <title>Expression 60</title> <g> <path fill="none" stroke="#fa7e19" class="dcg-svg-curve" paint-order="fill stroke markers" d=" M 203.5358338119954 261.85330934813385 L 203.5358338119954 261.85330934813385 L 215.84701366303787 261.768015421358 L 228.85748434105687 261.51832953482085 L 241.07421992110122 261.12005808112406 L 252.23251447714674 260.5947591576023 L 262.14623845260263 259.9681632118157 L 270.797716022145 259.2643221131277 L 278.2748482507947 258.5030861957757 L 284.70714322026214 257.70000503548874 L 290.2300855662143 256.8670363472845 L 294.9693997306595 256.01334764896035 L 299.035668978876 255.14599516288058 L 302.52369480651856 254.2704479974271 L 305.51378125293945 253.3909791543914 L 308.0736338015387 252.51095399971803 L 310.26030137838444 251.6330430498908 L 312.1219371448197 250.7593797408585 L 313.6993110534391 249.89167831710094 L 316.13480389191375 248.1794342238613 L 317.78806118006725 246.5045306560747 L 318.82299890576314 244.87239086382408 L 319.3631657764176 243.28657440379763 L 319.50322172276884 241.74936476564878 L 319.384561242769 240.59543823638487 L 318.86195692276226 238.82568329852583 L 318.1850744213344 237.44024635164288 L 317.3236040861977 236.1057827798461 L 315.7506568571296 234.19892450207627 L 313.91153531258846 232.40419258650806 L 311.8683714629697 230.71912322470436 L 308.9082983465214 228.6379131396484 L 305.75631631090624 226.73892242604188 L 302.4763713610406 225.01411107124434 L 298.26861493166655 223.09046523761475 L 294.0049318219833 221.40992503546326 L 289.7358346534682 219.95656589947953 L 285.4983670802041 218.714902990021 L 280.49314736904375 217.4833837413964 L 275.60657188864894 216.51069842161147 L 270.8622023715048 215.77370873709984 L 266.27600478908533 215.25073164252575 L 261.85836607435976 214.9215347746328 L 256.925631147382 214.75736755487534 L 252.23533118504957 214.80388640985146 L 247.78792497834198 215.03598439769556 L 242.99919373166045 215.49928374741654 L 238.5170300968242 216.14450484795412 L 234.33164540055438 216.94425968518433 L 229.96352244342262 217.99848565950802 L 225.93864735484357 219.18701629593275 L 222.2383375530403 220.48326374134228 L 218.48450081926094 222.02190701113145 L 215.08220973118014 223.63791950480234 L 211.71582590858242 225.4774705489287 L 208.4564426794588 227.52915166205167 L 205.59008565916432 229.6011759886921 L 202.8862595635634 231.84331853353538 L 200.39389749786596 234.23030366251518 L 198.15296088595463 236.73250457622922 L 196.1941579059434 239.3172519012175 L 194.6254616621532 241.7988010402295 L 194.2015960679512 242.56176017008966 L 191.68212644958416 241.96728017878536 L 189.07415962589297 241.56153083382733 L 186.42981347916722 241.34647461175328 L 183.56453136620974 241.3197521640892 L 180.72185170603942 241.4942129863602 L 177.9526746573676 241.85144202569856 L 175.0371504055799 242.4276699345411 L 172.2763680839967 243.16942473498577 L 169.43840753931562 244.14740743716004 L 166.85646695241536 245.25485848630217 L 164.58617234110574 246.44027623210457 L 162.4066954969761 247.83357758090023 L 160.65796825235668 249.23764908984103 L 159.36990988462745 250.5879324177728 L 158.53710497358517 251.8216045710942 L 158.10766732217292 252.88136670684887 L 157.9797473265505 253.71889878448465 L 158.07682858263328 254.59252626745575 L 158.30281298489447 255.1943719818875 L 158.6920180664758 255.81096129059983 L 159.6706566027909 256.7609337938777 L 160.6673832831709 257.4082791666786 L 162.0300749638754 258.0634581325435 L 163.86905579898828 258.7218637057159 L 166.3382452342009 259.37636877962154 L 169.65386470767905 260.01564481466164 L 174.11400352120813 260.6211072489283 L 180.08891430491855 261.1614644893254 L 187.85366904969212 261.5850223404526 L 197.1117057381412 261.8226486186511 L 202.1318452094323 261.8541915003059" stroke-linecap="round" stroke-linejoin="round" stroke-miterlimit="10" stroke-width="2.5" stroke-opacity="0.7" stroke-dasharray=""></path> </g> <g> <path fill="none" stroke="#fa7e19" class="dcg-svg-curve" paint-order="fill stroke markers" d=" M 202.1318452094343 261.8541915003059 L 202.1318452094343 261.8541915003059 L 203.53583381199533 261.85330934813385" stroke-linecap="round" stroke-linejoin="round" stroke-miterlimit="10" stroke-width="2.5" stroke-opacity="0.7" stroke-dasharray=""></path> </g> </g> <g id="sketch-de63e300"> <title>Expression 63</title> <g> <path fill="none" stroke="#2d70b3" class="dcg-svg-curve" paint-order="fill stroke markers" d=" M 202.13184520943273 261.8541915003059 L 205.83575645592174 261.76108245233274 M 205.83575645592174 261.76108245233274 L 209.5303113011472 261.4819905099494 M 209.5303113011472 261.4819905099494 L 213.0918416600465 261.0320645933927 M 219.95274627450237 259.656037970521 L 220.46476927583734 259.5382045978972 M 220.46476927583734 259.5382045978972 L 224.0291600608671 258.5268954719238 M 224.0291600608671 258.5268954719238 L 227.53823632815875 257.33777328854114 M 227.53823632815875 257.33777328854114 L 230.38747179042073 256.2096811653719 M 236.71250252124838 253.21869859129424 L 237.6457682993714 252.7357658653538 M 237.6457682993714 252.7357658653538 L 240.84667484100618 250.86980093309973 M 240.84667484100618 250.86980093309973 L 243.9497843630103 248.84536542878513 M 243.9497843630103 248.84536542878513 L 245.9944802425978 247.34008785870617 M 251.4295499364338 242.93468362007073 L 254.58484074345898 239.93413842952216 M 254.58484074345898 239.93413842952216 L 257.7337574852206 236.53837614940116 M 257.7337574852206 236.53837614940116 L 259.0082055047736 234.97797391951605 M 263.2175422340906 229.38903657321217 L 263.3617236070608 229.18794291453514 M 263.3617236070608 229.18794291453514 L 265.8185619760297 225.26228076167462 M 265.8185619760297 225.26228076167462 L 267.60349852966465 222.0154932237874 M 267.60349852966465 222.0154932237874 L 268.6597452730112 219.84216995248468 M 271.36455492761365 213.3902664249734 L 271.95004934645624 211.79550443371497 M 271.95004934645624 211.79550443371497 L 273.05061257079495 208.25765361635206 M 273.05061257079495 208.25765361635206 L 273.97202883388337 204.66897420927228 M 273.97202883388337 204.66897420927228 L 274.3496791516836 202.8160744644628 M 275.41718732675463 195.90214206444736 L 275.6404169049884 193.68912192810055 M 275.6404169049884 193.68912192810055 L 275.8265761912643 189.98872025573905 M 275.8265761912643 189.98872025573905 L 275.8265761912643 186.2836389048532 M 275.8265761912643 186.2836389048532 L 275.7579632055593 184.91977674074872 M 275.1250394149438 177.95228091487076 L 274.7119705582731 175.2338276324802 M 274.7119705582731 175.2338276324802 L 273.97202883388337 171.60338495132 M 273.97202883388337 171.60338495132 L 273.05061257079495 168.01470554424026 M 273.05061257079495 168.01470554424026 L 272.80104411381376 167.21244725503615 M 270.5048217519418 160.60305361580092 L 269.2230480048612 157.58923556127232 M 269.2230480048612 157.58923556127232 L 267.60349852966465 154.25686593680493 M 267.60349852966465 154.25686593680493 L 265.8185619760297 151.0100783989177 M 265.8185619760297 151.0100783989177 L 265.6532509454662 150.7422079292423 M 261.80644352708623 144.89729996334535 L 261.22176975483023 144.0598129122288 M 261.22176975483023 144.0598129122288 L 258.33759132449677 140.43650049240654 M 258.33759132449677 140.43650049240654 L 255.23159449221 137.00143691403366 M 255.23159449221 137.00143691403366 L 254.7186547633551 136.50122943864025 M 249.57620070005294 131.75702249809908 L 248.40400446314766 130.74948635410016 M 248.40400446314766 130.74948635410016 L 244.70935664498765 127.95727296515497 M 244.70935664498765 127.95727296515497 L 240.8466748410062 125.40255822749253 M 240.8466748410062 125.40255822749253 L 240.68067184406863 125.30578696381909 M 234.54877541710607 121.93400671174828 L 234.35515050583035 121.83381252440711 M 234.35515050583035 121.83381252440711 L 230.9831338465155 120.2985172870064 M 230.9831338465155 120.2985172870064 L 227.53823632815875 118.93458587205117 M 227.53823632815875 118.93458587205117 L 224.3447868449771 117.85242027269985 M 217.57855004465478 116.06994036674048 L 216.85406793353866 115.90321314875251 M 216.85406793353866 115.90321314875251 L 213.20617697892715 115.25473847696827 M 213.20617697892715 115.25473847696827 L 209.5303113011472 114.79036865064296 M 209.5303113011472 114.79036865064296 L 206.6919802864624 114.5759570776116 M 199.69635933468408 114.47939098775274 L 198.4279339629437 114.51127670825957 M 198.4279339629437 114.51127670825957 L 194.73337911771824 114.79036865064296 M 194.73337911771824 114.79036865064296 L 191.0575134399383 115.25473847696827 M 191.0575134399383 115.25473847696827 L 188.77232857503333 115.66096896019097 M 181.96063199457862 117.25572436357463 L 180.23453035799832 117.74546368866851 M 180.23453035799832 117.74546368866851 L 176.72545409070668 118.93458587205117 M 176.72545409070668 118.93458587205117 L 173.28055657234995 120.2985172870064 M 173.28055657234995 120.2985172870064 L 171.64636622941694 121.04257192967269 M 165.42100653865248 124.23433391080117 L 163.41701557785925 125.40255822749253 M 163.41701557785925 125.40255822749253 L 160.31390605585514 127.42699373180716 M 160.31390605585514 127.42699373180716 L 156.5844628867469 130.17255956748312 M 156.5844628867469 130.17255956748312 L 156.32063474030713 130.39362398102415 M 151.06870047489463 135.01653268802218 L 149.67884967540644 136.33822073107012 M 149.67884967540644 136.33822073107012 L 146.52993293364486 139.73398301119113 M 146.52993293364486 139.73398301119113 L 143.71438252331444 143.18127240332694 M 139.74077623176268 148.9398260157451 L 138.4451284428358 151.0100783989177 M 138.4451284428358 151.0100783989177 L 136.66019188920077 154.25686593680493 M 136.66019188920077 154.25686593680493 L 135.0406424140042 157.5892355612723 M 135.0406424140042 157.5892355612723 L 134.59151201782873 158.64527006027356 M 132.09459913887721 165.18098300087868 L 131.2130778480705 168.0147055442402 M 131.2130778480705 168.0147055442402 L 130.29166158498205 171.60338495132 M 130.29166158498205 171.60338495132 L 129.55171986059239 175.23382763248023 M 129.55171986059239 175.23382763248023 L 129.4582543613168 175.8489347488673 M 128.61262147063118 182.79497439279945 L 128.43711422760123 186.2836389048532 M 128.43711422760123 186.2836389048532 L 128.4371142276012 189.98872025573908 M 128.4371142276012 189.98872025573908 L 128.62327351387702 193.68912192810052 M 128.62327351387702 193.68912192810052 L 128.63298460163188 193.78539426314381 M 129.50463888714677 200.72868626930253 L 129.55171986059236 201.0385315281121 M 129.55171986059236 201.0385315281121 L 130.29166158498208 204.6689742092723 M 130.29166158498208 204.6689742092723 L 131.2130778480705 208.2576536163521 M 131.2130778480705 208.2576536163521 L 132.18631542365853 211.3862056850907 M 134.7123548254013 217.91122523280828 L 135.0406424140042 218.68312359932 M 135.0406424140042 218.68312359932 L 136.66019188920075 222.01549322378736 M 136.66019188920075 222.01549322378736 L 138.44512844283577 225.26228076167462 M 138.44512844283577 225.26228076167462 L 139.8898989334554 227.60339102259437 M 143.92308437734894 233.31952749223106 L 145.92609909436865 235.83585866818578 M 145.92609909436865 235.83585866818578 L 149.03209592665547 239.27092224655865 M 149.03209592665547 239.27092224655865 L 151.289239685452 241.47203890349627 M 156.57016997031621 246.05981788917163 L 159.55433377387777 248.31508619543732 M 159.55433377387777 248.31508619543732 L 163.41701557785927 250.86980093309975 M 163.41701557785927 250.86980093309975 L 165.68775655304393 252.19352687598936 M 171.9273758373829 255.35773224316688 L 173.28055657234992 255.9738418735859 M 173.28055657234992 255.9738418735859 L 176.72545409070665 257.33777328854114 M 176.72545409070665 257.33777328854114 L 180.23453035799832 258.5268954719238 M 180.23453035799832 258.5268954719238 L 182.25767324862218 259.10091302270115 M 189.07632838008357 260.6654313371171 L 191.05751343993825 261.01762068362405 M 191.05751343993825 261.01762068362405 L 194.73337911771821 261.4819905099494 M 194.73337911771821 261.4819905099494 L 198.42793396294365 261.76108245233274 M 198.42793396294365 261.76108245233274 L 200.0050276339469 261.800727487135" stroke-linecap="round" stroke-linejoin="round" stroke-miterlimit="10" stroke-width="2.5" stroke-opacity="0.7" stroke-dasharray=""></path> </g> </g> <g id="sketch-de63e300"> <title>Expression 68</title> <path fill="#388c46" stroke="none" paint-order="stroke fill markers" d="" fill-opacity="0.4"></path> <g> <path fill="none" stroke="#388c46" class="dcg-svg-curve" paint-order="fill stroke markers" d=" M 202.13184520943273 261.8541915003059 L 212.42362122651997 257.97097808689324 M 218.97293323739368 255.49984227835793 L 229.26470925448092 251.61662886494528 M 235.81402126535463 249.14549305640998 L 246.10579728244187 245.26227964299733 M 252.65510929331558 242.79114383446202 L 262.9468853104028 238.90793042104937 M 269.4961973212765 236.43679461251406 L 279.78797333836377 232.55358119910142 M 286.33728534923745 230.0824453905661 L 296.6290613663247 226.1992319771535 M 303.1783733771984 223.72809616861818 L 313.4701493942856 219.84488275520553 M 320.0194614051593 217.37374694667022 L 330.31123742224656 213.49053353325758 M 336.86054943312024 211.01939772472227 L 347.1523254502075 207.13618431130965 M 353.7016374610812 204.66504850277434 L 363.99341347816846 200.7818350893617 M 370.54272548904214 198.31069928082638 L 380.8345015061294 194.42748586741376 M 387.3838135170031 191.95635005887846 L 397.67558953409036 188.0731366454658" stroke-linecap="round" stroke-linejoin="round" stroke-miterlimit="10" stroke-width="2.5" stroke-opacity="0.7" stroke-dasharray=""></path> </g> </g> </g> <g id="labels-de63e300"></g> </g> <g transform="matrix(2, 0, 0, 2, 0, 0)"> <g id="background-60d79aba"> <rect fill="white" stroke="none" x="0" y="0" width="400" height="400" class="dcg-svg-background"></rect> </g> <g id="background-images-60d79aba"></g> <g id="graphpaper-60d79aba"> <g id="axis-60d79aba"> <g id="yaxis-60d79aba"> <title>Y axis</title> <path fill="none" stroke="rgb(0,0,0)" class="dcg-svg-axis-line" paint-order="fill stroke markers" d=" M 203 0 L 203 400" stroke-opacity="0.9" stroke-miterlimit="10" stroke-width="1.5" stroke-dasharray=""></path> </g> <g id="xaxis-60d79aba"> <title>X axis</title> <path fill="none" stroke="rgb(0,0,0)" class="dcg-svg-axis-line" paint-order="fill stroke markers" d=" M 0 262 L 400 262" stroke-opacity="0.9" stroke-miterlimit="10" stroke-width="1.5" stroke-dasharray=""></path> </g> <g> <g class="dcg-svg-axis-value"> <text fill="none" stroke="#ffffff" font-family="Arial" font-size="14px" font-style="normal" font-weight="normal" text-decoration="normal" x="193.73877880318273" y="278.1621915003059" text-anchor="middle" stroke-miterlimit="2" stroke-width="3" stroke-dasharray="" style="white-space: pre;">0</text> <text fill="#000000" stroke="none" font-family="Arial" font-size="14px" font-style="normal" font-weight="normal" text-decoration="normal" x="193.73877880318273" y="278.1621915003059" text-anchor="middle" style="white-space: pre;">0</text> </g> <g> <path fill="none" stroke="rgb(0,0,0)" class="dcg-svg-tickmark" paint-order="fill stroke markers" d=" M 45 259 L 45 265 M 360 259 L 360 265 M 200 105 L 206 105" stroke-opacity="0.9" stroke-miterlimit="2" stroke-width="1.5" stroke-dasharray=""></path> </g> <g class="dcg-svg-axis-value"> <text fill="none" stroke="#ffffff" font-family="Arial" font-size="14px" font-style="normal" font-weight="normal" text-decoration="normal" x="42.825196546255654" y="278.1621915003059" text-anchor="middle" stroke-miterlimit="2" stroke-width="3" stroke-dasharray="" style="white-space: pre;">-0.01</text> <text fill="#000000" stroke="none" font-family="Arial" font-size="14px" font-style="normal" font-weight="normal" text-decoration="normal" x="42.825196546255654" y="278.1621915003059" text-anchor="middle" style="white-space: pre;">-0.01</text> </g> <g class="dcg-svg-axis-value"> <text fill="none" stroke="#ffffff" font-family="Arial" font-size="14px" font-style="normal" font-weight="normal" text-decoration="normal" x="360.1074391851098" y="278.1621915003059" text-anchor="middle" stroke-miterlimit="2" stroke-width="3" stroke-dasharray="" style="white-space: pre;">0.01</text> <text fill="#000000" stroke="none" font-family="Arial" font-size="14px" font-style="normal" font-weight="normal" text-decoration="normal" x="360.1074391851098" y="278.1621915003059" text-anchor="middle" style="white-space: pre;">0.01</text> </g> <g class="dcg-svg-axis-value"> <text fill="none" stroke="#ffffff" font-family="Arial" font-size="14px" font-style="normal" font-weight="normal" text-decoration="normal" x="184.00782177193273" y="108.6865975246288" text-anchor="middle" stroke-miterlimit="2" stroke-width="3" stroke-dasharray="" style="white-space: pre;">0.01</text> <text fill="#000000" stroke="none" font-family="Arial" font-size="14px" font-style="normal" font-weight="normal" text-decoration="normal" x="184.00782177193273" y="108.6865975246288" text-anchor="middle" style="white-space: pre;">0.01</text> </g> </g> </g> </g> <g id="expressions-60d79aba"> <g id="sketch-60d79aba"> <title>Expression 61</title> <g> <path fill="none" stroke="#fa7e19" class="dcg-svg-curve" paint-order="fill stroke markers" d=" M 203.15698653920742 261.85354738492697 L 203.15698653920742 261.85354738492697 L 212.145260587202 261.7912745279732 L 221.64347335241422 261.6089882426536 L 230.56345049409643 261.3182048853395 L 238.7136597946409 260.9345965903615 L 245.9595918814882 260.47684907330927 L 252.28934864452265 259.9624018652755 L 257.7677937587965 259.4056155989186 L 262.4899271103222 258.81770561511877 L 266.5549387064296 258.20726323697204 L 273.07021945237256 256.9434612136291 L 277.91420516694996 255.65037844610765 L 281.52148183525344 254.34966133195573 L 284.2008070158685 253.05457388674355 L 286.17304867375026 251.77337366999248 L 287.5985742546995 250.51121876597625 L 288.5958140456924 249.27128496021473 L 289.25370545822074 248.0554444247691 L 289.64009426993084 246.8646920373373 L 289.8074851485605 245.6994213047025 L 289.7970416622866 244.55960773015536 L 289.5175458644975 242.8968660769096 L 288.99429888453665 241.28875986509428 L 288.289064876321 239.7327773592329 L 287.1434456132119 237.73421911595582 L 285.48802699830617 235.3479893997083 L 283.3065804957091 232.62948852556255 L 279.8579490192765 228.7973587639649 L 274.090199757521 222.8815065725626 L 260.535431876439 209.04545854875042 L 255.70654038832362 204.29566358959616 L 252.24834284282178 201.27375253174387 L 249.4833548629309 199.1988255026615 L 246.9738974381004 197.622409831542 L 244.77206147259588 196.4941141728069 L 242.46457145913544 195.57064347492278 L 240.54278865717097 195.00152306309084 L 238.55689733372105 194.599733152062 L 236.512742207136 194.37788186392288 L 234.41882436407687 194.34515869756257 L 232.2860933255461 194.50660580514463 L 230.12754860841486 194.86263355941833 L 227.95767658305024 195.40884745846975 L 225.7917727181921 196.13621468884423 L 223.11335237707235 197.2797523053368 L 220.49362344425228 198.65253626826345 L 217.95779613664382 200.2161822040798 L 215.05425655828176 202.28703502376592 L 211.89044632415838 204.88377037722785 L 208.59542154147238 207.96900651118202 L 205.3031490722399 211.4477600393941 L 202.13184520943273 215.1827250090072 L 198.9212696740499 219.35333210996853 L 195.4525134502735 224.2806748045124 L 190.61115275039987 231.6528512967257 L 186.88905710914017 237.15473379521697 L 184.39635552878647 240.41566724357207 L 181.87016162644534 243.30078634817323 L 178.65794524662843 246.54006991598652 L 173.92893199548502 251.2983320092649 L 172.55533788901047 253.0595303882758 L 171.86088868793587 254.28434361228204 L 171.52370254496958 255.27639053403263 L 171.4467391561351 256.0006944644806 L 171.52367832637557 256.6112446240765 L 171.77427289544516 257.2413597226674 L 172.26481063812716 257.8902986196251 L 173.0939760113916 258.55601151038115 L 174.413890829817 259.23407338807453 L 175.68117115329738 259.68884540797274 L 177.37901585022902 260.1406694452486 L 179.65863607323547 260.5820051286528 L 182.72901780729327 261.0002598817319 L 186.85083672726304 261.37396646233447 L 192.22110179182792 261.66735625962855 L 198.64205748267062 261.8322642287838 L 202.1318452094324 261.8541915003059" stroke-linecap="round" stroke-linejoin="round" stroke-miterlimit="10" stroke-width="2.5" stroke-opacity="0.7" stroke-dasharray=""></path> </g> <g> <path fill="none" stroke="#fa7e19" class="dcg-svg-curve" paint-order="fill stroke markers" d=" M 202.13184520943386 261.8541915003059 L 202.13184520943386 261.8541915003059 L 203.1569865392074 261.85354738492697" stroke-linecap="round" stroke-linejoin="round" stroke-miterlimit="10" stroke-width="2.5" stroke-opacity="0.7" stroke-dasharray=""></path> </g> </g> <g id="sketch-60d79aba"> <title>Expression 63</title> <g> <path fill="none" stroke="#2d70b3" class="dcg-svg-curve" paint-order="fill stroke markers" d=" M 202.13184520943273 261.8541915003059 L 205.83575645592174 261.76108245233274 M 205.83575645592174 261.76108245233274 L 209.5303113011472 261.4819905099494 M 209.5303113011472 261.4819905099494 L 213.0918416600465 261.0320645933927 M 219.95274627450237 259.656037970521 L 220.46476927583734 259.5382045978972 M 220.46476927583734 259.5382045978972 L 224.0291600608671 258.5268954719238 M 224.0291600608671 258.5268954719238 L 227.53823632815875 257.33777328854114 M 227.53823632815875 257.33777328854114 L 230.38747179042073 256.2096811653719 M 236.71250252124838 253.21869859129424 L 237.6457682993714 252.7357658653538 M 237.6457682993714 252.7357658653538 L 240.84667484100618 250.86980093309973 M 240.84667484100618 250.86980093309973 L 243.9497843630103 248.84536542878513 M 243.9497843630103 248.84536542878513 L 245.9944802425978 247.34008785870617 M 251.4295499364338 242.93468362007073 L 254.58484074345898 239.93413842952216 M 254.58484074345898 239.93413842952216 L 257.7337574852206 236.53837614940116 M 257.7337574852206 236.53837614940116 L 259.0082055047736 234.97797391951605 M 263.2175422340906 229.38903657321217 L 263.3617236070608 229.18794291453514 M 263.3617236070608 229.18794291453514 L 265.8185619760297 225.26228076167462 M 265.8185619760297 225.26228076167462 L 267.60349852966465 222.0154932237874 M 267.60349852966465 222.0154932237874 L 268.6597452730112 219.84216995248468 M 271.36455492761365 213.3902664249734 L 271.95004934645624 211.79550443371497 M 271.95004934645624 211.79550443371497 L 273.05061257079495 208.25765361635206 M 273.05061257079495 208.25765361635206 L 273.97202883388337 204.66897420927228 M 273.97202883388337 204.66897420927228 L 274.3496791516836 202.8160744644628 M 275.41718732675463 195.90214206444736 L 275.6404169049884 193.68912192810055 M 275.6404169049884 193.68912192810055 L 275.8265761912643 189.98872025573905 M 275.8265761912643 189.98872025573905 L 275.8265761912643 186.2836389048532 M 275.8265761912643 186.2836389048532 L 275.7579632055593 184.91977674074872 M 275.1250394149438 177.95228091487076 L 274.7119705582731 175.2338276324802 M 274.7119705582731 175.2338276324802 L 273.97202883388337 171.60338495132 M 273.97202883388337 171.60338495132 L 273.05061257079495 168.01470554424026 M 273.05061257079495 168.01470554424026 L 272.80104411381376 167.21244725503615 M 270.5048217519418 160.60305361580092 L 269.2230480048612 157.58923556127232 M 269.2230480048612 157.58923556127232 L 267.60349852966465 154.25686593680493 M 267.60349852966465 154.25686593680493 L 265.8185619760297 151.0100783989177 M 265.8185619760297 151.0100783989177 L 265.6532509454662 150.7422079292423 M 261.80644352708623 144.89729996334535 L 261.22176975483023 144.0598129122288 M 261.22176975483023 144.0598129122288 L 258.33759132449677 140.43650049240654 M 258.33759132449677 140.43650049240654 L 255.23159449221 137.00143691403366 M 255.23159449221 137.00143691403366 L 254.7186547633551 136.50122943864025 M 249.57620070005294 131.75702249809908 L 248.40400446314766 130.74948635410016 M 248.40400446314766 130.74948635410016 L 244.70935664498765 127.95727296515497 M 244.70935664498765 127.95727296515497 L 240.8466748410062 125.40255822749253 M 240.8466748410062 125.40255822749253 L 240.68067184406863 125.30578696381909 M 234.54877541710607 121.93400671174828 L 234.35515050583035 121.83381252440711 M 234.35515050583035 121.83381252440711 L 230.9831338465155 120.2985172870064 M 230.9831338465155 120.2985172870064 L 227.53823632815875 118.93458587205117 M 227.53823632815875 118.93458587205117 L 224.3447868449771 117.85242027269985 M 217.57855004465478 116.06994036674048 L 216.85406793353866 115.90321314875251 M 216.85406793353866 115.90321314875251 L 213.20617697892715 115.25473847696827 M 213.20617697892715 115.25473847696827 L 209.5303113011472 114.79036865064296 M 209.5303113011472 114.79036865064296 L 206.6919802864624 114.5759570776116 M 199.69635933468408 114.47939098775274 L 198.4279339629437 114.51127670825957 M 198.4279339629437 114.51127670825957 L 194.73337911771824 114.79036865064296 M 194.73337911771824 114.79036865064296 L 191.0575134399383 115.25473847696827 M 191.0575134399383 115.25473847696827 L 188.77232857503333 115.66096896019097 M 181.96063199457862 117.25572436357463 L 180.23453035799832 117.74546368866851 M 180.23453035799832 117.74546368866851 L 176.72545409070668 118.93458587205117 M 176.72545409070668 118.93458587205117 L 173.28055657234995 120.2985172870064 M 173.28055657234995 120.2985172870064 L 171.64636622941694 121.04257192967269 M 165.42100653865248 124.23433391080117 L 163.41701557785925 125.40255822749253 M 163.41701557785925 125.40255822749253 L 160.31390605585514 127.42699373180716 M 160.31390605585514 127.42699373180716 L 156.5844628867469 130.17255956748312 M 156.5844628867469 130.17255956748312 L 156.32063474030713 130.39362398102415 M 151.06870047489463 135.01653268802218 L 149.67884967540644 136.33822073107012 M 149.67884967540644 136.33822073107012 L 146.52993293364486 139.73398301119113 M 146.52993293364486 139.73398301119113 L 143.71438252331444 143.18127240332694 M 139.74077623176268 148.9398260157451 L 138.4451284428358 151.0100783989177 M 138.4451284428358 151.0100783989177 L 136.66019188920077 154.25686593680493 M 136.66019188920077 154.25686593680493 L 135.0406424140042 157.5892355612723 M 135.0406424140042 157.5892355612723 L 134.59151201782873 158.64527006027356 M 132.09459913887721 165.18098300087868 L 131.2130778480705 168.0147055442402 M 131.2130778480705 168.0147055442402 L 130.29166158498205 171.60338495132 M 130.29166158498205 171.60338495132 L 129.55171986059239 175.23382763248023 M 129.55171986059239 175.23382763248023 L 129.4582543613168 175.8489347488673 M 128.61262147063118 182.79497439279945 L 128.43711422760123 186.2836389048532 M 128.43711422760123 186.2836389048532 L 128.4371142276012 189.98872025573908 M 128.4371142276012 189.98872025573908 L 128.62327351387702 193.68912192810052 M 128.62327351387702 193.68912192810052 L 128.63298460163188 193.78539426314381 M 129.50463888714677 200.72868626930253 L 129.55171986059236 201.0385315281121 M 129.55171986059236 201.0385315281121 L 130.29166158498208 204.6689742092723 M 130.29166158498208 204.6689742092723 L 131.2130778480705 208.2576536163521 M 131.2130778480705 208.2576536163521 L 132.18631542365853 211.3862056850907 M 134.7123548254013 217.91122523280828 L 135.0406424140042 218.68312359932 M 135.0406424140042 218.68312359932 L 136.66019188920075 222.01549322378736 M 136.66019188920075 222.01549322378736 L 138.44512844283577 225.26228076167462 M 138.44512844283577 225.26228076167462 L 139.8898989334554 227.60339102259437 M 143.92308437734894 233.31952749223106 L 145.92609909436865 235.83585866818578 M 145.92609909436865 235.83585866818578 L 149.03209592665547 239.27092224655865 M 149.03209592665547 239.27092224655865 L 151.289239685452 241.47203890349627 M 156.57016997031621 246.05981788917163 L 159.55433377387777 248.31508619543732 M 159.55433377387777 248.31508619543732 L 163.41701557785927 250.86980093309975 M 163.41701557785927 250.86980093309975 L 165.68775655304393 252.19352687598936 M 171.9273758373829 255.35773224316688 L 173.28055657234992 255.9738418735859 M 173.28055657234992 255.9738418735859 L 176.72545409070665 257.33777328854114 M 176.72545409070665 257.33777328854114 L 180.23453035799832 258.5268954719238 M 180.23453035799832 258.5268954719238 L 182.25767324862218 259.10091302270115 M 189.07632838008357 260.6654313371171 L 191.05751343993825 261.01762068362405 M 191.05751343993825 261.01762068362405 L 194.73337911771821 261.4819905099494 M 194.73337911771821 261.4819905099494 L 198.42793396294365 261.76108245233274 M 198.42793396294365 261.76108245233274 L 200.0050276339469 261.800727487135" stroke-linecap="round" stroke-linejoin="round" stroke-miterlimit="10" stroke-width="2.5" stroke-opacity="0.7" stroke-dasharray=""></path> </g> </g> <g id="sketch-60d79aba"> <title>Expression 68</title> <path fill="#388c46" stroke="none" paint-order="stroke fill markers" d="" fill-opacity="0.4"></path> <g> <path fill="none" stroke="#388c46" class="dcg-svg-curve" paint-order="fill stroke markers" d=" M 202.13184520943273 261.8541915003059 L 212.42362122651997 257.97097808689324 M 218.97293323739368 255.49984227835793 L 229.26470925448092 251.61662886494528 M 235.81402126535463 249.14549305640998 L 246.10579728244187 245.26227964299733 M 252.65510929331558 242.79114383446202 L 262.9468853104028 238.90793042104937 M 269.4961973212765 236.43679461251406 L 279.78797333836377 232.55358119910142 M 286.33728534923745 230.0824453905661 L 296.6290613663247 226.1992319771535 M 303.1783733771984 223.72809616861818 L 313.4701493942856 219.84488275520553 M 320.0194614051593 217.37374694667022 L 330.31123742224656 213.49053353325758 M 336.86054943312024 211.01939772472227 L 347.1523254502075 207.13618431130965 M 353.7016374610812 204.66504850277434 L 363.99341347816846 200.7818350893617 M 370.54272548904214 198.31069928082638 L 380.8345015061294 194.42748586741376 M 387.3838135170031 191.95635005887846 L 397.67558953409036 188.0731366454658" stroke-linecap="round" stroke-linejoin="round" stroke-miterlimit="10" stroke-width="2.5" stroke-opacity="0.7" stroke-dasharray=""></path> </g> </g> </g> <g id="labels-60d79aba"></g> </g>
</svg>