<?xml version="1.0"?>

<svg viewBox="129.486 42.297 194.863 229.714" xmlns="http://www.w3.org/2000/svg" xmlns:xlink="http://www.w3.org/1999/xlink" xmlns:bx="https://boxy-svg.com" width="194.863" height="229.714"> <defs> <linearGradient id="gradient-1-0" gradientTransform="matrix(0.441374, 0.332932, -0.60264, 0.806102, 0.337411, 0.25)" xlink:href="#gradient-1"></linearGradient> <linearGradient id="gradient-1" bx:pinned="true"> <stop offset="0" style="stop-color: rgb(184, 182, 182);"></stop> <stop offset="0.595" style="stop-color: rgb(255, 255, 255);"></stop> <stop offset="1" style="stop-color: rgb(176, 176, 176);"></stop> </linearGradient> <linearGradient id="gradient-0-0" gradientTransform="matrix(0.735149, -0.844866, 0.752713, 0.658347, -0.23792, 0.425641)" xlink:href="#gradient-0"></linearGradient> <linearGradient id="gradient-0" bx:pinned="true"> <stop offset="0" style="stop-color: rgb(201, 201, 201);"></stop> <stop offset="1" style="stop-color: rgb(107, 107, 107);"></stop> </linearGradient> <marker id="marker-0" viewBox="0 0 100 100" overflow="visible" orient="auto" refX="50" refY="50" bx:pinned="true"> <title>Arrow</title> <path d="M 72.96 2.99 L 122.96 102.99 L 22.96 102.99 L 72.96 2.99 Z" style="" transform="matrix(0, 1, -1, 0, 102.989906, -22.959976)" bx:shape="triangle 22.96 2.99 100 100 0.5 0 1@0bf8184f"></path> </marker> </defs> <path style="fill: url(#gradient-1-0);" d="M 141.425 190.66 L 230.875 78.127 L 309.813 133.157 L 218.302 249.606 L 141.425 190.66 Z"></path> <path style="fill: none; stroke: rgb(0, 0, 255);" d="M 182.256 144.928 C 182.256 144.928 181.863 144.637 183.277 136.156 C 184.691 127.675 184.604 130.611 184.604 126.653 C 184.604 122.695 152.922 96.409 154.4 95.042 C 155.878 93.675 184.833 121.707 189.356 121.141 C 193.879 120.575 190.911 120.535 199.958 118.273 C 209.005 116.011 209.5 116.011 209.5 116.011"></path> <path style="fill: none; stroke: rgb(0, 255, 0);" d="M 180.096 152.389 C 180.096 152.389 180.096 147.582 181.51 139.101 C 182.924 130.62 182.64 133.163 182.64 129.205 C 182.64 125.247 160.973 105.049 163.236 102.504 C 165.499 99.959 186.403 119.756 190.926 119.19 C 195.449 118.624 196.212 117.786 205.259 115.524 C 214.306 113.262 216.568 113.655 216.568 113.655"></path> <path style="fill: none; stroke: rgb(255, 0, 0);" d="M 180.096 167.091 C 180.096 167.091 177.269 154.085 178.683 145.604 C 180.097 137.123 180.697 134.695 180.697 130.737 C 180.697 126.779 169.046 114.158 172.157 110.765 C 175.268 107.372 188.52 117.613 193.043 117.047 C 197.566 116.481 200.453 114.959 209.5 112.697 C 218.547 110.435 234.097 111.959 234.097 111.959"></path> <circle style="stroke: rgb(0, 0, 0); stroke-dasharray: 2px; fill: url(#gradient-0-0);" cx="272.83" cy="102.63" r="48.18"></circle> <circle style="stroke: rgb(0, 0, 0); fill: rgb(231, 231, 231);" cx="227.436" cy="159.746" r="48.18"></circle> <circle style="stroke-dasharray: 2px; stroke: rgb(0, 0, 0); fill: rgb(249, 249, 249);" cx="180.886" cy="219.107" r="48.18"></circle> <line style="stroke: rgb(0, 0, 0); stroke-dasharray: 2px;" x1="217.666" y1="250.192" x2="311.564" y2="131.184"></line> <line style="stroke: rgb(0, 0, 0); stroke-dasharray: 2px;" x1="141.052" y1="191.38" x2="236.076" y2="71.246"></line> <line style="stroke: rgb(0, 0, 0); paint-order: fill; marker-end: url(#marker-0);" x1="227.4" y1="159.7" x2="229.898" y2="55.849" transform="matrix(0.642788, -0.766044, 0.766044, 0.642788, -41.107198, 231.245338)" bx:origin="0 1"></line> <line style="stroke: rgb(0, 0, 0); paint-order: fill; marker-end: url(#marker-0);" x1="227.4" y1="159.7" x2="227.4" y2="45.846" bx:origin="0 1"></line> <path style="stroke: rgb(0, 0, 0); fill: none;" d="M 215.791 154.426 C 215.791 154.426 218.418 146.767 227.029 147.017"></path> <line style="stroke: rgb(0, 0, 0); paint-order: fill; marker-end: url(#marker-0);" x1="227.4" y1="159.7" x2="273.949" y2="159.7" bx:origin="0 1"></line> <line style="stroke: rgb(0, 0, 0); paint-order: fill; marker-end: url(#marker-0);" x1="227.4" y1="159.7" x2="149.383" y2="126.4" bx:origin="0 1"></line> <path style="stroke: rgb(0, 0, 0); fill: none;" d="M 206.427 142.02 C 206.427 142.02 213.591 132.124 227.029 132.017"></path>
</svg>