<?xml version="1.0"?>

<svg viewBox="7.634 6.503 249.788 126.237" xmlns="http://www.w3.org/2000/svg" xmlns:bx="https://boxy-svg.com" width="249.788" height="126.237"> <path style="fill: rgb(216, 216, 216); stroke: rgb(0, 0, 0);" d="M 188.221 40.833 C 148.639 40.267 127.729 37.595 93.791 72.216 C 59.853 106.837 85.724 133.941 129.696 112.364 C 173.668 90.787 174.638 68.252 189.634 68.54 C 204.63 68.828 227.801 72.5 230.911 65.714 C 234.021 58.928 219.887 44.226 188.221 40.833 Z" transform="matrix(-1, 0, 0, -1, 309.548532, 160.615056)"></path> <circle style="stroke: rgb(0, 0, 0); stroke-dasharray: 2px; fill: none;" cx="-123.308" cy="67.76" r="51.682" transform="matrix(-1, 0, 0, 1, 0, 0)"></circle> <line style="stroke: rgb(0, 0, 0);" x1="245.448" y1="119.593" x2="19.505" y2="119.593" transform="matrix(-1, 0, 0, -1, 264.953011, 239.186012)"></line> <path d="M -35.868 -17.839 H 33.429 L 33.429 -19.549 L 38.919 -17.339 L 33.429 -15.129 L 33.429 -16.839 H -35.868 V -17.839 Z" style="stroke: rgb(0, 0, 0);" transform="matrix(-0.84935, 0.52783, 0.52783, 0.84935, 186.388845, 103.127155)" bx:shape="arrow -35.868 -19.549 74.787 4.42 1 5.49 0 1@3efa305b"></path> <circle style="" cx="-123.307" cy="119.649" r="2.279" transform="matrix(-1, 0, 0, 1, 0, 0)"></circle>
</svg>