<?xml version="1.0"?>

<svg viewBox="66.045 210.348 680.803 420.244" xmlns="http://www.w3.org/2000/svg" width="680.803" height="420.244"> <g transform="matrix(2, 0, 0, 2, 0, 0)"> <g id="background-297e8ec2"> <rect fill="white" stroke="none" x="0" y="0" width="400" height="400" class="dcg-svg-background"></rect> </g> <g id="background-images-297e8ec2"></g> <g id="graphpaper-297e8ec2"> <g id="axis-297e8ec2"> <g id="yaxis-297e8ec2"> <title>Y axis</title> <path fill="none" stroke="rgb(0,0,0)" class="dcg-svg-axis-line" paint-order="fill stroke markers" d=" M 205 0 L 205 400" stroke-opacity="0.9" stroke-miterlimit="10" stroke-width="2" stroke-dasharray=""></path> </g> <g id="xaxis-297e8ec2"> <title>X axis</title> <path fill="none" stroke="rgb(0,0,0)" class="dcg-svg-axis-line" paint-order="fill stroke markers" d=" M 0 278 L 400 278" stroke-opacity="0.9" stroke-miterlimit="10" stroke-width="2" stroke-dasharray=""></path> </g> <g> <g class="dcg-svg-axis-value"> <text fill="none" stroke="#ffffff" font-family="Arial" font-size="20px" font-style="normal" font-weight="normal" text-decoration="normal" x="194.75276261174324" y="298.5930704342392" text-anchor="middle" stroke-miterlimit="2" stroke-width="3" stroke-dasharray="" style="white-space: pre;">0</text> <text fill="#000000" stroke="none" font-family="Arial" font-size="20px" font-style="normal" font-weight="normal" text-decoration="normal" x="194.75276261174324" y="298.5930704342392" text-anchor="middle" style="white-space: pre;">0</text> </g> <g> <path fill="none" stroke="rgb(0,0,0)" class="dcg-svg-tickmark" paint-order="fill stroke markers" d=" M 78 274 L 78 282 M 333 274 L 333 282 M 201 150 L 209 150 M 201 23 L 209 23" stroke-opacity="0.9" stroke-miterlimit="2" stroke-width="2" stroke-dasharray=""></path> </g> <g class="dcg-svg-axis-value"> <text fill="none" stroke="#ffffff" font-family="Arial" font-size="20px" font-style="normal" font-weight="normal" text-decoration="normal" x="74.24768276503552" y="298.5930704342392" text-anchor="middle" stroke-miterlimit="2" stroke-width="3" stroke-dasharray="" style="white-space: pre;">-0.05</text> <text fill="#000000" stroke="none" font-family="Arial" font-size="20px" font-style="normal" font-weight="normal" text-decoration="normal" x="74.24768276503552" y="298.5930704342392" text-anchor="middle" style="white-space: pre;">-0.05</text> </g> <g class="dcg-svg-axis-value"> <text fill="none" stroke="#ffffff" font-family="Arial" font-size="20px" font-style="normal" font-weight="normal" text-decoration="normal" x="333.05081120845097" y="298.5930704342392" text-anchor="middle" stroke-miterlimit="2" stroke-width="3" stroke-dasharray="" style="white-space: pre;">0.05</text> <text fill="#000000" stroke="none" font-family="Arial" font-size="20px" font-style="normal" font-weight="normal" text-decoration="normal" x="333.05081120845097" y="298.5930704342392" text-anchor="middle" style="white-space: pre;">0.05</text> </g> <g class="dcg-svg-axis-value"> <text fill="none" stroke="#ffffff" font-family="Arial" font-size="20px" font-style="normal" font-weight="normal" text-decoration="normal" x="180.85139542424324" y="155.85654527503152" text-anchor="middle" stroke-miterlimit="2" stroke-width="3" stroke-dasharray="" style="white-space: pre;">0.05</text> <text fill="#000000" stroke="none" font-family="Arial" font-size="20px" font-style="normal" font-weight="normal" text-decoration="normal" x="180.85139542424324" y="155.85654527503152" text-anchor="middle" style="white-space: pre;">0.05</text> </g> <g class="dcg-svg-axis-value"> <text fill="none" stroke="#ffffff" font-family="Arial" font-size="20px" font-style="normal" font-weight="normal" text-decoration="normal" x="186.41291886174324" y="28.120020115823795" text-anchor="middle" stroke-miterlimit="2" stroke-width="3" stroke-dasharray="" style="white-space: pre;">0.1</text> <text fill="#000000" stroke="none" font-family="Arial" font-size="20px" font-style="normal" font-weight="normal" text-decoration="normal" x="186.41291886174324" y="28.120020115823795" text-anchor="middle" style="white-space: pre;">0.1</text> </g> </g> </g> </g> <g id="expressions-297e8ec2"> <g id="sketch-297e8ec2"> <title>Expression 47</title> <g> <path fill="none" stroke="#fa7e19" class="dcg-svg-curve" paint-order="fill stroke markers" d=" M 206.60417689932245 277.65194581250216 L 206.60417689932245 277.65194581250216 L 221.39862599740778 277.5488665818763 L 235.4762881359363 277.26774006904867 L 247.5282935698562 276.847834990324 L 257.84675532372324 276.3199384023933 L 266.6686245822497 275.70921953556547 L 274.2226257842345 275.0351973603681 L 280.7183142518022 274.312482574753 L 286.3358116721103 273.5518970023329 L 291.22428895706554 272.76148475069886 L 295.50512466028556 271.9472865000711 L 299.2764680633936 271.11389748147553 L 302.61769194430184 270.2648616603908 L 308.2555908064647 268.53035605909776 L 312.80605873421035 266.7598311576271 L 316.5331745504217 264.9638128293434 L 319.62185227802934 263.1495019516463 L 322.20485854691026 261.32201433408613 L 324.3797180884669 259.48510829572933 L 326.2195493476905 257.64162912557686 L 327.780183503707 255.79379037773424 L 329.1049537800834 253.9433575240235 L 330.2279892039791 252.0917711866337 L 331.59240083755003 249.31480432727798 L 332.6340498241578 246.54123566336793 L 333.40570296193005 243.77377550232902 L 333.9473635868819 241.01470285475403 L 334.2899266804567 238.26599039741373 L 334.4576506990999 235.52938777359594 L 334.4421733644138 231.90213999370974 L 334.18577776126256 228.30263899862334 L 333.7160973503068 224.73401357566928 L 333.054793361074 221.19917908758947 L 332.21915923696434 217.7008878597212 L 330.95061710118955 213.3833996574182 L 329.45364754449054 209.13200160589065 L 327.7461206374618 204.95138612425433 L 325.84275019011284 200.84607153831345 L 323.7559136931725 196.820423757742 L 321.4962373184503 192.87867058651125 L 318.56949661354986 188.26507041586953 L 315.42139353524914 183.7850249656966 L 312.06457441716583 179.44513797773317 L 308.51055240274917 175.25177032330575 L 304.77000533361775 171.21104057451342 L 300.8529953262582 167.32882346175893 L 296.76913234662095 163.6107469239968 L 292.5276970981192 160.0621882381235 L 288.13773391971534 156.68826956904388 L 283.6081212838175 153.49385318463627 L 278.94762535829994 150.48353651328952 L 274.164940620457 147.66164717540164 L 269.26872047039234 145.03223808751835 L 264.26760004879947 142.59908271431 L 259.17021292774115 140.36567052647416 L 253.98520295138817 138.3352027099935 L 248.72123221486996 136.51058816266675 L 243.38698595454474 134.89443980657097 L 237.99117496197738 133.48907123948084 L 232.5425360125073 132.29649374381455 L 227.049830707393 131.31841366809658 L 221.52184305888804 130.55623019297724 L 215.9673760950087 130.01103349137406 L 210.39524772143596 129.68360329017128 L 204.81428604924324 129.57440783903115 L 199.2333243770505 129.68360329017128 L 193.6611960034778 130.01103349137406 L 188.10672903959846 130.55623019297724 L 182.5787413910935 131.31841366809658 L 177.0860360859792 132.29649374381455 L 171.63739713650915 133.48907123948084 L 166.24158614394182 134.89443980657097 L 160.90733988361657 136.5105881626667 L 155.6433691470983 138.3352027099935 L 150.45835917074535 140.36567052647416 L 145.36097204968704 142.59908271431 L 140.3598516280942 145.03223808751835 L 135.46363147802953 147.66164717540164 L 130.68094674018658 150.48353651328952 L 126.02045081466892 153.49385318463632 L 121.49083817877118 156.68826956904388 L 117.10087500036741 160.06218823812347 L 112.85943975186557 163.6107469239968 L 108.77557677222828 167.32882346175884 L 104.85856676486873 171.21104057451342 L 101.11801969573735 175.25177032330572 L 97.56399768132071 179.44513797773317 L 94.20717856323729 183.78502496569658 L 91.05907548493663 188.26507041586953 L 88.13233478003619 192.87867058651122 L 85.44114528921305 197.61897513322052 L 83.39010282629668 201.6608987580643 L 81.52484577327904 205.78162742900506 L 79.85816584968893 209.976766092455 L 78.40533328730758 214.2417636291321 L 77.1849760539511 218.57188930743376 L 76.39149655100634 222.0795668731452 L 75.77632872694113 225.6231128062609 L 75.35773753504535 229.19973776096114 L 75.15870304987446 232.80647852569078 L 75.17092139938661 235.52938777359594 L 75.33864541802981 238.26599039741373 L 75.68120851160454 241.01470285475403 L 76.22286913655653 243.773775502329 L 76.99452227432876 246.54123566336796 L 78.0361712609365 249.314804327278 L 79.40058289450737 252.0917711866337 L 80.52361831840312 253.94335752402344 L 81.84838859477946 255.79379037773424 L 83.409022750796 257.6416291255768 L 85.24885401001958 259.48510829572933 L 87.42371355157614 261.32201433408613 L 90.00671982045716 263.14950195164624 L 93.09539754806484 264.9638128293434 L 96.82251336427612 266.7598311576271 L 101.37298129202192 268.5303560590978 L 104.03535933069995 269.40294967374734 L 107.0108801541845 270.26486166039075 L 110.35210403509275 271.11389748147553 L 114.12344743820093 271.9472865000711 L 118.4042831414209 272.76148475069886 L 123.2927604263762 273.5518970023329 L 128.9102578466843 274.312482574753 L 135.40594631425228 275.0351973603681 L 142.9599475162371 275.7092195355655 L 151.78181677476292 276.31993840239323 L 162.1002785286299 276.847834990324 L 174.1522839625502 277.2677400690486 L 188.22994610107872 277.5488665818763 L 204.8142860492418 277.6530704342392" stroke-linecap="round" stroke-linejoin="round" stroke-miterlimit="10" stroke-width="5" stroke-opacity="0.7" stroke-dasharray=""></path> </g> <g> <path fill="none" stroke="#fa7e19" class="dcg-svg-curve" paint-order="fill stroke markers" d=" M 204.81428604924525 277.6530704342392 L 204.81428604924525 277.6530704342392 L 206.60417689932243 277.65194581250216" stroke-linecap="round" stroke-linejoin="round" stroke-miterlimit="10" stroke-width="5" stroke-opacity="0.7" stroke-dasharray=""></path> </g> </g> <g id="sketch-297e8ec2"> <title>Expression 49</title> <g> <path fill="none" stroke="#2d70b3" class="dcg-svg-curve" paint-order="fill stroke markers" d=" M 204.81428604924324 277.6530704342392 L 208.53434176877747 277.5595555459489 M 208.53434176877747 277.5595555459489 L 212.24500030470801 277.2792471078018 M 212.24500030470801 277.2792471078018 L 215.77448620551786 276.8333693477182 M 222.63640502847295 275.46293145075515 L 223.2271189954057 275.3269886927185 M 223.2271189954057 275.3269886927185 L 226.80704611678962 274.31127150946776 M 226.80704611678962 274.31127150946776 L 230.33141761753603 273.11696622374825 M 230.33141761753603 273.11696622374825 L 233.07554462552048 272.0304894815889 M 239.40630990538307 269.0520526508961 L 240.4830059298981 268.4948997387063 M 240.4830059298981 268.4948997387063 L 243.69786446604425 266.6208015066653 M 243.69786446604425 266.6208015066653 L 246.81449970848288 264.58754196682276 M 246.81449970848288 264.58754196682276 L 248.70313104376757 263.19715701249606 M 254.15630386480163 258.8132958353365 L 257.4959117842066 255.63747303682368 M 257.4959117842066 255.63747303682368 L 260.65855390923895 252.22690943211606 M 260.65855390923895 252.22690943211606 L 261.75933740477217 250.87913769509916 M 265.9833748603214 245.30145617366406 L 266.3110510042334 244.84443739736165 M 266.3110510042334 244.84443739736165 L 268.77859815054177 240.90166421170534 M 268.77859815054177 240.90166421170534 L 270.57131482042684 237.64072469489625 M 270.57131482042684 237.64072469489625 L 271.47402690184424 235.78331288634993 M 274.2135652450185 229.3461572689635 L 274.9368112241484 227.3761893910001 M 274.9368112241484 227.3761893910001 L 276.0421715432681 223.8229179187247 M 276.0421715432681 223.8229179187247 L 276.9676040419067 220.2185963069322 M 276.9676040419067 220.2185963069322 L 277.25898110274085 218.78898680783848 M 278.3718167173452 211.88192127851997 L 278.6432642219934 209.190885446708 M 278.6432642219934 209.190885446708 L 278.83023493256627 205.47435459870488 M 278.83023493256627 205.47435459870488 L 278.83023493256627 201.7531236745655 M 278.83023493256627 201.7531236745655 L 278.78738424783836 200.90135447947986 M 278.2081448474859 193.92842295376641 L 277.71077099725613 190.65514888844461 M 277.71077099725613 190.65514888844461 L 276.9676040419067 187.00888196633818 M 276.9676040419067 187.00888196633818 L 276.0421715432681 183.4045603545457 M 276.0421715432681 183.4045603545457 L 275.9688938337935 183.1690031429052 M 273.7217860973906 176.5418194352213 L 273.65431532064554 176.35804342163203 M 273.65431532064554 176.35804342163203 L 272.1979235287172 172.93364821383628 M 272.1979235287172 172.93364821383628 L 270.57131482042684 169.58675357837413 M 270.57131482042684 169.58675357837413 L 268.9517707061336 166.64081377080092 M 265.15319741702564 160.7653757937233 L 264.16176959931965 159.34525401155122 M 264.16176959931965 159.34525401155122 L 261.26501971739697 155.70614842990537 M 261.26501971739697 155.70614842990537 L 258.16861208156985 152.28168998131306 M 253.06043390223596 147.50025266967214 L 251.2881347004895 145.976910888219 M 251.2881347004895 145.976910888219 L 247.57738278637734 143.17252690154777 M 247.57738278637734 143.17252690154777 L 244.23128778143922 140.9594742462856 M 238.13900697703113 137.51964023719478 L 237.17804511171786 137.02237574510775 M 237.17804511171786 137.02237574510775 L 233.791330629361 135.48038851890732 M 233.791330629361 135.48038851890732 L 230.33141761753603 134.11051204952207 M 230.33141761753603 134.11051204952207 L 227.9868377401278 133.3160032584406 M 221.2458295585776 131.4445295633716 L 219.60067945998748 131.06592628952677 M 219.60067945998748 131.06592628952677 L 215.93688821153273 130.41462507003052 M 215.93688821153273 130.41462507003052 L 212.24500030470801 129.9482311654686 M 212.24500030470801 129.9482311654686 L 210.3809258888857 129.80741632545315 M 203.38781300875684 129.61026656725662 L 201.09423032970906 129.66792272732152 M 201.09423032970906 129.66792272732152 L 197.3835717937785 129.9482311654686 M 197.3835717937785 129.9482311654686 L 193.6916838869538 130.41462507003052 M 193.6916838869538 130.41462507003052 L 192.44795179077107 130.63571960736587 M 185.61185055770798 132.1245200834308 L 182.82152598169685 132.91620676380262 M 182.82152598169685 132.91620676380262 L 179.29715448095047 134.11051204952213 M 179.29715448095047 134.11051204952213 L 175.8372414691255 135.48038851890732 M 175.8372414691255 135.48038851890732 L 175.23923241880482 135.7526648863279 M 168.96015573089795 138.84066334438404 L 165.93070763244228 140.60667676660512 M 165.93070763244228 140.60667676660512 L 162.81407239000364 142.63993630644757 M 162.81407239000364 142.63993630644757 L 159.7763281642954 144.87628269528955 M 154.43824352368418 149.39749524814872 L 152.13266031427992 151.5900052364467 M 152.13266031427992 151.5900052364467 L 148.97001818924755 155.00056884115432 M 148.97001818924755 155.00056884115432 L 146.96660535150966 157.45349733366598 M 142.85885522726943 163.11592068500363 L 140.8499739479447 166.325814061565 M 140.8499739479447 166.325814061565 L 139.05725727805964 169.58675357837416 M 139.05725727805964 169.58675357837416 L 137.53081435906032 172.72754803674624 M 134.92322770584 179.22082257339252 L 134.69176087433814 179.8512888822702 M 134.69176087433814 179.8512888822702 L 133.5864005552184 183.40456035454562 M 133.5864005552184 183.40456035454562 L 132.66096805657983 187.00888196633815 M 132.66096805657983 187.00888196633815 L 132.08462009576164 189.8366698409573 M 131.11354687382772 196.76527615960575 L 130.98530787649312 198.03659282656238 M 130.98530787649312 198.03659282656238 L 130.7983371659203 201.75312367456547 M 130.7983371659203 201.75312367456547 L 130.7983371659203 205.47435459870488 M 130.7983371659203 205.47435459870488 L 130.9128826579577 207.7512452055409 M 131.63478770119997 214.70978590363933 L 131.91780110123034 216.57232938482574 M 131.91780110123034 216.57232938482574 L 132.66096805657983 220.2185963069322 M 132.66096805657983 220.2185963069322 L 133.58640055521843 223.8229179187247 M 133.58640055521843 223.8229179187247 L 134.08353393087785 225.42099395881033 M 136.45609787137784 232.00238159081363 L 137.43064856976932 234.2938300594341 M 137.43064856976932 234.2938300594341 L 139.05725727805964 237.64072469489622 M 139.05725727805964 237.64072469489622 L 140.8499739479447 240.90166421170534 M 140.8499739479447 240.90166421170534 L 141.41057728590948 241.8100674739095 M 145.2921916356776 247.63211155939587 L 145.46680249916685 247.8822242617192 M 145.46680249916685 247.8822242617192 L 148.3635523810895 251.521329843365 M 148.3635523810895 251.521329843365 L 151.48308751891338 254.97136605138775 M 151.48308751891338 254.97136605138775 L 152.47998633272127 255.94351971940392 M 157.6502627698787 260.6573425805289 L 158.34043739799702 261.25056738505145 M 158.34043739799702 261.25056738505145 L 162.05118931210916 264.0549513717226 M 162.05118931210916 264.0549513717226 L 165.93070763244228 266.6208015066653 M 165.93070763244228 266.6208015066653 L 166.61095015117667 267.0173481314656 M 172.76444590194203 270.34803130464553 L 175.8372414691255 271.74708975436306 M 175.8372414691255 271.74708975436306 L 179.29715448095044 273.11696622374825 M 179.29715448095044 273.11696622374825 L 182.82152598169688 274.31127150946776 M 182.82152598169688 274.31127150946776 L 182.99587704783391 274.360739380681 M 189.77331800980426 276.10296596904243 L 190.02789263849903 276.1615519837436 M 190.02789263849903 276.1615519837436 L 193.6916838869537 276.8128532032399 M 193.6916838869537 276.8128532032399 L 197.3835717937785 277.2792471078018 M 197.3835717937785 277.2792471078018 L 200.67051585538627 277.527547550234" stroke-linecap="round" stroke-linejoin="round" stroke-miterlimit="10" stroke-width="5" stroke-opacity="0.7" stroke-dasharray=""></path> </g> </g> </g> <g id="labels-297e8ec2"></g> </g>
</svg>